<svg xmlns="http://www.w3.org/2000/svg" id="recruitment-agency" viewBox="0 0 4000 3000">
  <defs>
    <clipPath id="clip-path">
      <path d="M2672.6286,789.6472h-779.76v-.0007H1603.8971A105.4019,105.4019,0,0,1,1709.299,895.0484v78.0941h0V2255.4742H2778.0305V895.0484A105.4013,105.4013,0,0,0,2672.6286,789.6472Z" style="fill:#fff;stroke:#010101;stroke-linecap:round;stroke-linejoin:round;stroke-width:6px"></path>
    </clipPath>
    <clipPath id="clip-path-2">
      <path d="M2229.4136,2128.1757l-657.352-419.7144v790.7959a79.7006,79.7006,0,0,0,79.7006,79.7006H2807.065a79.7007,79.7007,0,0,0,79.7007-79.7006V1708.4613Z" style="fill:#fff;stroke:#010101;stroke-linecap:round;stroke-linejoin:round;stroke-width:6px"></path>
    </clipPath>
    <clipPath id="clip-path-3">
      <polygon points="2790.634 2499.091 2861.901 2515.99 2920.198 2290.329 2831.953 2318.124 2790.634 2499.091" style="fill:#fff;stroke:#010101;stroke-linecap:round;stroke-linejoin:round;stroke-width:6px"></polygon>
    </clipPath>
    <clipPath id="clip-path-4">
      <polygon points="3175.724 2272.234 3182.39 2525.117 3253.569 2507.685 3264.111 2299.368 3175.724 2272.234" style="fill:#fff;stroke:#010101;stroke-linecap:round;stroke-linejoin:round;stroke-width:6px"></polygon>
    </clipPath>
    <clipPath id="clip-path-5">
      <path d="M2894.08,905.7192c-40.4513,114.9427-109.043-54.5947-130.8068-99.718,8.7963-54.3176,32.6118-100.6264-30.1315-29.8089-35.6965-2.2606-84.6647-69.2384-110.4467-47.0066C2587.3965,765.118,2732.0136,847.1231,2726.51,881.978c110.81,334.3834,175.5781,253.15,294.0517,81.0044Z" style="fill:#fff;stroke:#010101;stroke-linecap:round;stroke-linejoin:round;stroke-width:6px"></path>
    </clipPath>
    <clipPath id="clip-path-6">
      <path d="M2765.2444,2415.8621c21.9972,41.295,222.85,27.409,250.6745,15.0982,0,0,113.7542-829.7908,138.284-838.9034,48.58-18.0472-101.647,832.1715-84.1949,853.7133s224.421,34.0923,244.5542-14.81c0,0,117.9771-957.5374,27.2841-1202.0174C3289.23,1087.1057,2992.38,1230.25,2992.38,1230.25S2743.2473,2374.5672,2765.2444,2415.8621Z" style="fill:#fff;stroke:#010101;stroke-linecap:round;stroke-linejoin:round;stroke-width:6px"></path>
    </clipPath>
    <clipPath id="clip-path-7">
      <path d="M3017.5467,1486.8941l-12.1449-34.9165c81.222-22.3628-37.7214-206.685,77.9059-209.9268-.0237.1279.1834,32.5425.1883,36.96C3028.9725,1309.9421,3125.9829,1457.2442,3017.5467,1486.8941Z" style="stroke:#010101;stroke-linecap:round;stroke-linejoin:round;stroke-width:6px;fill:#010101"></path>
    </clipPath>
    <clipPath id="clip-path-8">
      <path d="M3155.348,803.7218c-24.4423,17.0068-153.26,145.51-160.6714,176.6732-1.92,63.9724-74.5989,202.176-12.43,285.3787,35.9816,78.4148,379.61,1.9563,396.8437-51.6169C3310.975,1005.5436,3253.4253,781.3442,3155.348,803.7218Z" style="stroke:#010101;stroke-linecap:round;stroke-linejoin:round;stroke-width:6px;fill:#010101"></path>
    </clipPath>
    <clipPath id="clip-path-9">
      <path d="M3263.7767,918.55c43.51,47.456,86.4457,245.2015,118.1,300.6995,30.251-30.24,19.7845-124.0931,40.684-155.3094,56.5522-14.81,76.5565-3.7793,75.925-23.0152-6.0522-184.3512-282.6488-391.0113-547.7874-204.7978-92.9142,91.21-114.9824,73.614-36.5283,176.7925,128.93,169.562,127.4977-108.3383,168.0258-123.4019" style="stroke:#010101;stroke-linecap:round;stroke-linejoin:round;stroke-width:6px;fill:#010101"></path>
    </clipPath>
    <clipPath id="clip-path-10">
      <path d="M3133.73,702.4107c7.4736,71.5662-26.6919,106.9757-17.4494,129.9251,25.7944,18.1613,87.365-52.9856,90.2887-57.2375,3.3,6.3507,2.6865-113.261,4.114-117.3812Z" style="fill:#fff;stroke:#010101;stroke-linecap:round;stroke-linejoin:round;stroke-width:6px"></path>
    </clipPath>
    <clipPath id="clip-path-11">
      <path d="M3336.3609,1082.4671l107.5549-23.1254s-11.4316,396.3547-11.3765,414.0812c.0039,1.2662,25.6027,89.82-40.8562,95.0915s-94.2351-60.5962-66.3751-59.4165,50.5668-26.114,49.2652-37.5057S3356.6946,1106.4617,3336.3609,1082.4671Z" style="fill:#fff;stroke:#010101;stroke-linecap:round;stroke-linejoin:round;stroke-width:6px"></path>
    </clipPath>
    <clipPath id="clip-path-12">
      <ellipse cx="3229.272" cy="619.095" rx="29.265" ry="27.178" style="stroke:#010101;stroke-linecap:round;stroke-linejoin:round;stroke-width:6px;fill:#010101"></ellipse>
    </clipPath>
    <clipPath id="clip-path-13">
      <ellipse cx="3112.743" cy="630.016" rx="29.265" ry="27.178" style="stroke:#010101;stroke-linecap:round;stroke-linejoin:round;stroke-width:6px;fill:#010101"></ellipse>
    </clipPath>
    <clipPath id="clip-path-14">
      <path d="M3167.19,740.9446h0c-30.2665,0-54.8024-22.786-54.8024-50.894l-2.4658-90.6853h109.6049l2.4659,90.6853C3221.9922,718.1586,3197.4563,740.9446,3167.19,740.9446Z" style="fill:#fff;stroke:#010101;stroke-linecap:round;stroke-linejoin:round;stroke-width:6px"></path>
    </clipPath>
    <clipPath id="clip-path-15">
      <ellipse cx="3167.193" cy="566.57" rx="37.521" ry="36.268" style="stroke:#010101;stroke-linecap:round;stroke-linejoin:round;stroke-width:6px;fill:#010101"></ellipse>
    </clipPath>
    <clipPath id="clip-path-16">
      <path d="M3153.1792,657.7075c.3716,19.795-21.2074,19.74-23.0252,1.3525C3129.7824,639.2655,3151.3614,639.32,3153.1792,657.7075Z" style="fill:#fff"></path>
    </clipPath>
    <clipPath id="clip-path-17">
      <path d="M3204.7092,657.7075c.3716,19.795-21.2074,19.74-23.0252,1.3525C3181.3124,639.2655,3202.8914,639.32,3204.7092,657.7075Z" style="fill:#fff"></path>
    </clipPath>
    <clipPath id="clip-path-18">
      <ellipse cx="1414.747" cy="777.598" rx="116.292" ry="89.358" style="stroke:#010101;stroke-linecap:round;stroke-linejoin:round;stroke-width:6px;fill:#010101"></ellipse>
    </clipPath>
    <clipPath id="clip-path-19">
      <path d="M1442.762,2306.4219c30.1524,253.0729,51.1418,198.9871-51.2647,268.2314,7.4891-26.5033-75.0157-260.8909-82.1291-289.1337Z" style="fill:#fff;stroke:#010101;stroke-linecap:round;stroke-linejoin:round;stroke-width:6px"></path>
    </clipPath>
    <clipPath id="clip-path-20">
      <path d="M1034.0369,2309.6641c-114.4579,248.3506-65.9808,211.7687-191.39,216.2792C866.1833,2507.8145,947.01,2265.1416,959.536,2236.4Z" style="fill:#fff;stroke:#010101;stroke-linecap:round;stroke-linejoin:round;stroke-width:6px"></path>
    </clipPath>
    <clipPath id="clip-path-21">
      <path d="M875.13,2397.3916c4.2263,35.3335,220.7256,49.7322,303.6777-16.22s-33.5336-458.5689-32.2371-502.0115,220.4512-652.2012,220.4512-652.2012l-257.6791,17.377s-94.9919,422.48-116.8291,518.0533S875.13,2397.3916,875.13,2397.3916Z" style="fill:#fff;stroke:#010101;stroke-linecap:round;stroke-linejoin:round;stroke-width:6px"></path>
    </clipPath>
    <clipPath id="clip-path-22">
      <path d="M1165.7843,1463.6072c-8.9521,144.7831-17.4027,322.6369-10.1253,390.1993,13.1024,121.6393,172.89,586.1125,172.89,586.1125,16.4242,37.3144,225.03-28.3752,255.2346-140.3649S1439,1880.7556,1382.498,1731.4359c0,0,197.7462-446.597,11.9427-504.477l-214.0046,26.0656" style="fill:#fff;stroke:#010101;stroke-linecap:round;stroke-linejoin:round;stroke-width:6px"></path>
    </clipPath>
    <clipPath id="clip-path-23">
      <path d="M997.1825,672.905c-29.5393-9.8348-74.8141,53.6317-71.8851,96.3057,0,0-155.82,223.9374-38.3521,316.7244s301.669-157.6283,301.669-157.6283l-91.9857-65.6454S960.7461,954.67,947.9491,965.1455s7.0357-180.4622,18.36-186.6693S1050.161,690.5436,997.1825,672.905Z" style="fill:#fff;stroke:#010101;stroke-linecap:round;stroke-linejoin:round;stroke-width:6px"></path>
    </clipPath>
    <clipPath id="clip-path-24">
      <path d="M973.8009,915.7346s92.9879,210.2417,127.8228,160.8268,187.5025-250.5023,187.5025-250.5023l-82.3916-57.4255S1098.7881,782.1364,973.8009,915.7346Z" style="fill:#fff;stroke:#010101;stroke-linecap:round;stroke-linejoin:round;stroke-width:6px"></path>
    </clipPath>
    <clipPath id="clip-path-25">
      <path d="M1083.1338,1262.9649c-29.2168,21.3852,77.7262,70.6346,222.9818,72.8693,166.9785,2.5689,194.5916-76.3331,194.5916-76.3331s-73.1948-127.866-51.8357-264.624,14.7222-228.0143-134.6062-242.9471-232.2886,97.893-209.06,207.4005S1132.3258,1226.9589,1083.1338,1262.9649Z" style="fill:#fff;stroke:#010101;stroke-linecap:round;stroke-linejoin:round;stroke-width:6px"></path>
    </clipPath>
    <clipPath id="clip-path-26">
      <polygon points="1301.167 880.405 1171.674 876.097 1238.647 1086.731 1301.167 880.405" style="fill:#fff;stroke:#010101;stroke-linecap:round;stroke-linejoin:round;stroke-width:6px"></polygon>
    </clipPath>
    <clipPath id="clip-path-27">
      <path d="M1307.8273,762.7432l-7.2227-106.1324c-90.19,42.7966-61.9472,48.7185-79.7235,119.3482" style="fill:#fff;stroke:#010101;stroke-linecap:round;stroke-linejoin:round;stroke-width:6px"></path>
    </clipPath>
    <clipPath id="clip-path-28">
      <path d="M1289.4823,679.93c0,29.57,26.3492,88.5967,70.1476,62.5289,34.588-20.5861,77.3349-32.959,77.3349-62.5289s-33.0151-53.541-73.7412-53.541S1289.4823,650.36,1289.4823,679.93Z" style="stroke:#010101;stroke-linecap:round;stroke-linejoin:round;stroke-width:6px;fill:#010101"></path>
    </clipPath>
    <clipPath id="clip-path-29">
      <ellipse cx="1314.617" cy="553.58" rx="30.453" ry="29.158" style="stroke:#010101;stroke-linecap:round;stroke-linejoin:round;stroke-width:6px;fill:#010101"></ellipse>
    </clipPath>
    <clipPath id="clip-path-30">
      <path d="M1319.4252,662.6129c-71.2361,129.59-154.5622,62.078-131.84-15.756,7.87-26.9607-7.07-44.34-7.07-44.34l96.8811-15.0051,30.6316,55.9282Z" style="fill:#fff;stroke:#010101;stroke-linecap:round;stroke-linejoin:round;stroke-width:6px"></path>
    </clipPath>
    <clipPath id="clip-path-31">
      <path d="M1227.0754,656.6905c-2.6914,18.4708,16.25,21.0118,20.2386,3.2183C1250.1544,640.5254,1230.8363,639.5744,1227.0754,656.6905Z" style="fill:#fff"></path>
    </clipPath>
    <clipPath id="clip-path-32">
      <path d="M1187.5425,653.0242c-2.415,16.7577,13.1071,18.8354,16.5631,2.7474C1206.64,638.2663,1190.8226,637.4921,1187.5425,653.0242Z" style="fill:#fff"></path>
    </clipPath>
    <clipPath id="clip-path-33">
      <path d="M1223.2565,577.9634c12.11,53.2-26.2066,60.4157-42.7417,50.4718-38.1946-31.2423,22.7956-72.98,56.2765-60.02S1223.2565,577.9634,1223.2565,577.9634Z" style="stroke:#010101;stroke-linecap:round;stroke-linejoin:round;stroke-width:6px;fill:#010101"></path>
    </clipPath>
    <clipPath id="clip-path-34">
      <path d="M1305.89,673.4506c-74.0856,2.7282-152.4453-186.2,2.1371-107.7641C1426.2356,625.6659,1305.89,673.4506,1305.89,673.4506Z" style="stroke:#010101;stroke-linecap:round;stroke-linejoin:round;stroke-width:6px;fill:#010101"></path>
    </clipPath>
    <clipPath id="clip-path-35">
      <path d="M1094.9023,708.6673c-44.8767,103.39-2.6382,147.5586,28.3883,244.5092,165.2063,378.0308,331.4371,48.7454,356.1015-53.2341L1351.37,871.2443s-66.8847,110.0707-68.7529,123.7591-158.93-185.4161-155.475-195.3713S1138.536,694.9789,1094.9023,708.6673Z" style="fill:#fff;stroke:#010101;stroke-linecap:round;stroke-linejoin:round;stroke-width:6px"></path>
    </clipPath>
    <clipPath id="clip-path-36">
      <circle cx="651.449" cy="746.507" r="152.95" style="fill:none"></circle>
    </clipPath>
    <clipPath id="clip-path-37">
      <path d="M941.8759,1067.4761l77.5777-5.4638c-2.1109-.117-244.45-232.7077-264.208-225.7633-68.8151,24.187-45.7971,95.5761-41.762,125.3627,15.441,4.0513,174.3661,118.0321,185.576,125.5151" style="fill:#fff;stroke:#010101;stroke-linecap:round;stroke-linejoin:round;stroke-width:6px"></path>
    </clipPath>
    <clipPath id="clip-path-38">
      <path d="M757.2494,836.326c8.5442-.6043-172.4159-86.56-237.6737-7.35-9.8759,11.9873-29.0681,303.901-32.9636,316.0527l302.974-47.808L769.5779,935.7928" style="fill:#fff;stroke:#010101;stroke-linecap:round;stroke-linejoin:round;stroke-width:6px"></path>
    </clipPath>
    <clipPath id="clip-path-39">
      <polygon points="604.433 925.865 604.433 1025.51 772.829 968.645 604.433 925.865" style="fill:#fff;stroke:#010101;stroke-linecap:round;stroke-linejoin:round;stroke-width:6px"></polygon>
    </clipPath>
    <clipPath id="clip-path-40">
      <path d="M612.2446,749.4664c.8559,1.4515,8.1342,37.6759,11.5616,54.5665,2.671,11.106-.6279,4.8145,5.3723,11.9748,8.6283,16.292,70.3881,43.5373,67.9786,8.6177C665.7982,717.1115,693.4145,740.0766,612.2446,749.4664Z" style="fill:#fff;stroke:#010101;stroke-linecap:round;stroke-linejoin:round;stroke-width:6px"></path>
    </clipPath>
    <clipPath id="clip-path-41">
      <ellipse cx="681.165" cy="706.141" rx="20.512" ry="20.66" style="stroke:#010101;stroke-linecap:round;stroke-linejoin:round;stroke-width:6px;fill:#010101" transform="rotate(-74.857 681.165 706.141)"></ellipse>
    </clipPath>
    <clipPath id="clip-path-42">
      <path d="M677.8672,687.2537c9.0152,49.1616,47.0812,72.6915,5.8444,94.9368s-53.7483-4.97-74.7242-50.2081,20.19-53.6887,20.19-53.6887Z" style="fill:#fff;stroke:#010101;stroke-linecap:round;stroke-linejoin:round;stroke-width:6px"></path>
    </clipPath>
    <clipPath id="clip-path-43">
      <path d="M603.1233,748.3c31.0788,9.202,34.7415-15.1936,24.673-24.7593,13.2552-2.9891,2.9376-16.2507,2.9376-16.2507s14.474-.8068,14.6277-4.7688c45.1385,21.8467,57.0318-36.7806,30.5418-39.5878s-49.8449,11.1634-49.8449,11.1634c32.2245-19.7961-44.1236-21.8-30.3178,28.4652-12.6786-14.4478-9.32,10.373,1.3053,15.7107C570.74,730.76,603.1233,748.3,603.1233,748.3Z" style="stroke:#010101;stroke-linecap:round;stroke-linejoin:round;stroke-width:6px;fill:#010101"></path>
    </clipPath>
    <clipPath id="clip-path-44">
      <path d="M660.71,729.9406c5.8142,11.7171-5.7386,17.3561-12.2325,6.36C642.3653,724.0078,654.5115,719.3471,660.71,729.9406Z" style="fill:#fff"></path>
    </clipPath>
    <clipPath id="clip-path-45">
      <path d="M685.1846,719.26c5.2577,10.6359-4.2106,15.254-9.9859,5.28C669.6987,713.4318,679.6449,709.6187,685.1846,719.26Z" style="fill:#fff"></path>
    </clipPath>
    <clipPath id="clip-path-46">
      <path d="M686.5861,750.599a1.5577,1.5577,0,0,1,1.2635,1.44c.3858,8.8968-7,11.831-12.5946,8.2081C665.4587,754.7222,676.1074,748.6161,686.5861,750.599Z" style="fill:#fff"></path>
    </clipPath>
    <clipPath id="clip-path-47">
      <polygon points="565.586 1259.085 940.355 1057.608 839.214 982.123 486.612 1145.029 565.586 1259.085" style="fill:#fff;stroke:#010101;stroke-linecap:round;stroke-linejoin:round;stroke-width:6px"></polygon>
    </clipPath>
    <clipPath id="clip-path-48">
      <polygon points="756.078 1227.321 1172.909 1125.039 1089.421 1022.066 806.266 1117.113 756.078 1227.321" style="fill:#fff;stroke:#010101;stroke-linecap:round;stroke-linejoin:round;stroke-width:6px"></polygon>
    </clipPath>
    <clipPath id="clip-path-49">
      <path d="M624.3785,1554.9358l59.49,43.987c84.3988-192.16,89.1736-132.4443-2.7284-206.1537Z" style="fill:#fff;stroke:#010101;stroke-linecap:round;stroke-linejoin:round;stroke-width:6px"></path>
    </clipPath>
    <clipPath id="clip-path-50">
      <path d="M875.3036,1552.5558l59.921,43.4538c82.4988-192.9053,87.8627-133.2347-4.7626-206.12Z" style="fill:#fff;stroke:#010101;stroke-linecap:round;stroke-linejoin:round;stroke-width:6px"></path>
    </clipPath>
    <clipPath id="clip-path-51">
      <path d="M1181.7718,1148.9007c-.1269.0611-677.59-.0441-854.3538,0-29.5374,5.0629-88.5852-26.3659-78.8974,80.4376-.0761,46.02.0519,145.1483-.0019,180.1328-21.8675,208.4071,90.1019,12.1138,116.987,9.0026,8.211-.0051,54.7943-.004,122.55-.0045,762.2992-11.1394,736.4325,46.3266,730.9965-92.9412C1213.8925,1226.3385,1239.4185,1154.1738,1181.7718,1148.9007Z" style="stroke:#010101;stroke-linecap:round;stroke-linejoin:round;stroke-width:6px;fill:#010101"></path>
    </clipPath>
    <clipPath id="clip-path-52">
      <path d="M733.1085,1124.6937l-128.3211,292.53s184.2366,107.9923,241.0616,71.3412S947.2,1088.3763,947.2,1088.3763c23.6914-47.8744-7.8076-103.94-62.8138-111.8042h0a86.3194,86.3194,0,0,0-58.0178,12.138" style="fill:#fff;stroke:#010101;stroke-linecap:round;stroke-linejoin:round;stroke-width:6px"></path>
    </clipPath>
    <clipPath id="clip-path-53">
      <path d="M1009.3643,1137.96c.2252.0748-123.9684,220.9539-153.2072,300.2273-6.5025,17.5187-10.093,27.193-10.3081,27.7725,24.5542,23.878,203.623,93.8445,244.9913,51.85s90.9438-375.7346,94.9284-382.95c37.501-63.59-38.1643-144.5772-114.6927-105.4863" style="fill:#fff;stroke:#010101;stroke-linecap:round;stroke-linejoin:round;stroke-width:6px"></path>
    </clipPath>
    <clipPath id="clip-path-54">
      <path d="M1208.1683,1472.4942H542.0919a33.9962,33.9962,0,0,0-33.9952,33.9965v304.8675a33.9962,33.9962,0,0,0,33.9952,33.9966H977.5112c17.55,22.1554,37.5694,47.3948,52.1207,65.7286,6.7238,8.4729,20.2775,3.6094,20.2775-7.2075v-58.5211h158.2589a33.9963,33.9963,0,0,0,33.9953-33.9966V1506.4907A33.9962,33.9962,0,0,0,1208.1683,1472.4942Z" style="fill:#fff;stroke:#010101;stroke-linecap:round;stroke-linejoin:round;stroke-width:6px"></path>
    </clipPath>
    <clipPath id="clip-path-55">
      <rect width="59.647" height="195.365" x="2006.151" y="1373.153" style="stroke:#010101;stroke-linecap:round;stroke-linejoin:round;stroke-width:6px;fill:#010101" transform="rotate(-37.945 2035.978 1470.837)"></rect>
    </clipPath>
    <clipPath id="clip-path-56">
      <path d="M2194.961,1656.3125l-16.86,13.1465a28.9111,28.9111,0,0,1-40.5771-5.0214l-126.02-161.6149a10.7951,10.7951,0,0,1,1.875-15.1512l45.4322-35.426a10.7953,10.7953,0,0,1,15.1512,1.875l126.02,161.6149A28.9112,28.9112,0,0,1,2194.961,1656.3125Z" style="stroke:#010101;stroke-linecap:round;stroke-linejoin:round;stroke-width:6px;fill:#010101"></path>
    </clipPath>
  </defs>
  <path d="M2886.7657 1708.4613h0a31.0676 31.0676 0 0 0-31.0676-31.0675H1603.1291a31.0675 31.0675 0 0 0-31.0675 31.0675h0l657.352 419.7144ZM1603.8973 789.6466h-.0007a105.4019 105.4019 0 0 0-105.402 105.4019v554.63h210.8046v-554.63A105.4019 105.4019 0 0 0 1603.8973 789.6466Z" style="fill:#fff;stroke:#010101;stroke-linecap:round;stroke-linejoin:round;stroke-width:6px"></path>
  <path d="M2672.6286,789.6472h-779.76v-.0007H1603.8971A105.4019,105.4019,0,0,1,1709.299,895.0484v78.0941h0V2255.4742H2778.0305V895.0484A105.4013,105.4013,0,0,0,2672.6286,789.6472Z" style="fill:#fff"></path>
  <g style="clip-path:url(#clip-path)">
    <path d="M2811.1762,935.0515C2756.0733,2390.9182,1531.64,1978.443,1531.64,1978.443l210.8045,574.2382,1119.3966,248.8661,298.6393-1376L2811.1762,935.0515" style="fill:#fff"></path>
  </g>
  <path d="M2672.6286,789.6472h-779.76v-.0007H1603.8971A105.4019,105.4019,0,0,1,1709.299,895.0484v78.0941h0V2255.4742H2778.0305V895.0484A105.4013,105.4013,0,0,0,2672.6286,789.6472Z" style="stroke:#010101;stroke-linecap:round;stroke-linejoin:round;stroke-width:6px;fill:none"></path>
  <path d="M1814.7013,2255.4742h0c-6.3526,0,6.043,1.0769,0,0Z" style="stroke:#010101;stroke-linecap:round;stroke-linejoin:round;stroke-width:6px;fill:#010101"></path>
  <g style="opacity:.73">
    <path d="M1895.19,1189.7848a80.34,80.34,0,1,0,80.34,80.34A80.34,80.34,0,0,0,1895.19,1189.7848Zm0,118.3289a37.9886,37.9886,0,1,1,37.9882-37.9889A37.9882,37.9882,0,0,1,1895.19,1308.1137Z" style="fill:#fff;stroke:#010101;stroke-linecap:round;stroke-linejoin:round;stroke-width:6px"></path>
    <rect width="667.27" height="44.825" x="2013.468" y="1214.163" rx="7.401" style="fill:#fff;stroke:#010101;stroke-linecap:round;stroke-linejoin:round;stroke-width:6px"></rect>
    <rect width="243.932" height="44.147" x="2013.468" y="1281.94" rx="7.289" style="fill:#fff;stroke:#010101;stroke-linecap:round;stroke-linejoin:round;stroke-width:6px"></rect>
    <rect width="243.932" height="44.147" x="2284.244" y="1281.94" rx="7.289" style="fill:#fff;stroke:#010101;stroke-linecap:round;stroke-linejoin:round;stroke-width:6px"></rect>
  </g>
  <g style="opacity:.73">
    <path d="M1895.19,1776.5686a80.34,80.34,0,1,0,80.34,80.34A80.34,80.34,0,0,0,1895.19,1776.5686Zm0,118.329a37.9886,37.9886,0,1,1,37.9882-37.989A37.9883,37.9883,0,0,1,1895.19,1894.8976Z" style="fill:#fff;stroke:#010101;stroke-linecap:round;stroke-linejoin:round;stroke-width:6px"></path>
    <rect width="667.27" height="44.825" x="2013.468" y="1800.947" rx="7.401" style="fill:#fff;stroke:#010101;stroke-linecap:round;stroke-linejoin:round;stroke-width:6px"></rect>
    <rect width="243.932" height="44.147" x="2013.468" y="1868.724" rx="7.289" style="fill:#fff;stroke:#010101;stroke-linecap:round;stroke-linejoin:round;stroke-width:6px"></rect>
    <rect width="243.932" height="44.147" x="2284.244" y="1868.724" rx="7.289" style="fill:#fff;stroke:#010101;stroke-linecap:round;stroke-linejoin:round;stroke-width:6px"></rect>
  </g>
  <rect width="237.496" height="45.756" x="2129.046" y="954.332" rx="7.554" style="fill:#fff;stroke:#010101;stroke-linecap:round;stroke-linejoin:round;stroke-width:6px"></rect>
  <rect width="398.731" height="26.146" x="2048.428" y="1044.755" rx="4.317" style="fill:#fff;stroke:#010101;stroke-linecap:round;stroke-linejoin:round;stroke-width:6px"></rect>
  <path d="M1895.19,1483.1767a80.34,80.34,0,1,0,80.34,80.34A80.34,80.34,0,0,0,1895.19,1483.1767Zm0,118.3289a37.9886,37.9886,0,1,1,37.9882-37.9889A37.9882,37.9882,0,0,1,1895.19,1601.5056Z" style="fill:#fff;stroke:#010101;stroke-linecap:round;stroke-linejoin:round;stroke-width:6px"></path>
  <rect width="667.27" height="44.825" x="2013.468" y="1507.555" rx="7.401" style="fill:#fff;stroke:#010101;stroke-linecap:round;stroke-linejoin:round;stroke-width:6px"></rect>
  <rect width="243.932" height="44.147" x="2013.468" y="1575.332" rx="7.289" style="fill:#fff;stroke:#010101;stroke-linecap:round;stroke-linejoin:round;stroke-width:6px"></rect>
  <rect width="243.932" height="44.147" x="2284.244" y="1575.332" rx="7.289" style="fill:#fff;stroke:#010101;stroke-linecap:round;stroke-linejoin:round;stroke-width:6px"></rect>
  <path d="M2229.4136,2128.1757l-657.352-419.7144v790.7959a79.7006,79.7006,0,0,0,79.7006,79.7006H2807.065a79.7007,79.7007,0,0,0,79.7007-79.7006V1708.4613Z" style="fill:#fff"></path>
  <g style="clip-path:url(#clip-path-2)">
    <path d="M2886.7656,1615.8967c128.2236,1422.1455-1281.5375,1069.39-1312.8543,885.9982,0,0-157.5307,470.536-138.8658,489.201s1505.64,24.8866,1505.64,24.8866l6.2217-1247.4442-143.0981-190.8608" style="fill:#fff"></path>
  </g>
  <path d="m2229.4136 2128.1757-657.352-419.7144v790.7959a79.7006 79.7006 0 0 0 79.7006 79.7006H2807.065a79.7007 79.7007 0 0 0 79.7007-79.7006V1708.4613ZM1948.4968 922.7093l-36.8358 50.1363" style="stroke:#010101;stroke-linecap:round;stroke-linejoin:round;stroke-width:6px;fill:none"></path>
  <path d="M2607.7181,2188.0533c-29.1412,42.4739-63.4031,78.8558-101.1118,107.3684" style="stroke-linecap:round;stroke-linejoin:round;stroke-width:6px;fill:none;stroke:#fff"></path>
  <polygon points="2790.634 2499.091 2861.901 2515.99 2920.198 2290.329 2831.953 2318.124 2790.634 2499.091" style="fill:#fff"></polygon>
  <g style="clip-path:url(#clip-path-3)">
    <path d="M2815.7026,2389.2973c-47.9046,7.4842,28.422,15.8916,60.3973,37.9262,30.48,47.03,27.6936,16.89,23.185-13.8413" style="fill:#fff;stroke:#010101;stroke-linecap:round;stroke-linejoin:round;stroke-width:6px"></path>
    <path d="M2813.2443,2423.7135c-47.5273,18.0758,66.1011,27.3627,69.9251,62.8716s9.2869-78.1195,9.2869-78.1195" style="fill:#fff"></path>
  </g>
  <polygon points="2790.634 2499.091 2861.901 2515.99 2920.198 2290.329 2831.953 2318.124 2790.634 2499.091" style="stroke:#010101;stroke-linecap:round;stroke-linejoin:round;stroke-width:6px;fill:none"></polygon>
  <polygon points="3175.724 2272.234 3182.39 2525.117 3253.569 2507.685 3264.111 2299.368 3175.724 2272.234" style="fill:#fff"></polygon>
  <g style="clip-path:url(#clip-path-4)">
    <path d="M3128.1121,2473.8983c150.3955,17.2957,213.68-55.3614,69.1794-84.38-52.1287-8.4-97.817,30.2137-101.9568,61.436" style="fill:#fff"></path>
  </g>
  <polygon points="3175.724 2272.234 3182.39 2525.117 3253.569 2507.685 3264.111 2299.368 3175.724 2272.234" style="stroke:#010101;stroke-linecap:round;stroke-linejoin:round;stroke-width:6px;fill:none"></polygon>
  <path d="M3396.8556,2588.0184c15.1186-63.2872-147.9873-52.446-141.1567-92.5236,0,0-29.7868,17.2157-74.1544-2.4542l-5.0048,95.802c67.6044,4.1093,24.3778-7.795,47.1622-13.9431C3251.7494,2594.4051,3374.0172,2587.6677,3396.8556,2588.0184Z" style="fill:#fff;stroke:#010101;stroke-linecap:round;stroke-linejoin:round;stroke-width:6px"></path>
  <path d="M2894.08,905.7192c-40.4513,114.9427-109.043-54.5947-130.8068-99.718,8.7963-54.3176,32.6118-100.6264-30.1315-29.8089-35.6965-2.2606-84.6647-69.2384-110.4467-47.0066C2587.3965,765.118,2732.0136,847.1231,2726.51,881.978c110.81,334.3834,175.5781,253.15,294.0517,81.0044Z" style="fill:#fff"></path>
  <g style="clip-path:url(#clip-path-5)">
    <path d="M2893.5489,933.4828c-2.6163,46.3994,46.9689,139.4558,27.6314,190.1185,65.6664-35.4192,31.1332-100.4493,29.729-138.4941" style="fill:#fff"></path>
  </g>
  <path d="M2894.08,905.7192c-40.4513,114.9427-109.043-54.5947-130.8068-99.718,8.7963-54.3176,32.6118-100.6264-30.1315-29.8089-35.6965-2.2606-84.6647-69.2384-110.4467-47.0066C2587.3965,765.118,2732.0136,847.1231,2726.51,881.978c110.81,334.3834,175.5781,253.15,294.0517,81.0044Z" style="stroke:#010101;stroke-linecap:round;stroke-linejoin:round;stroke-width:6px;fill:none"></path>
  <path d="M2765.2444,2415.8621c21.9972,41.295,222.85,27.409,250.6745,15.0982,0,0,113.7542-829.7908,138.284-838.9034,48.58-18.0472-101.647,832.1715-84.1949,853.7133s224.421,34.0923,244.5542-14.81c0,0,117.9771-957.5374,27.2841-1202.0174C3289.23,1087.1057,2992.38,1230.25,2992.38,1230.25S2743.2473,2374.5672,2765.2444,2415.8621Z" style="fill:#fff"></path>
  <g style="clip-path:url(#clip-path-6)">
    <path d="M2915.6947,1446.1313c207.83-222.0009,455.1741-81.5592,428.14-279.5252-318.4159-10.7621-342.5154-12.635-451.7023,149.5726C2862.2556,1322.4573,2907.0739,1427.6956,2915.6947,1446.1313Z" style="fill:#fff"></path>
    <line x1="2798.14" x2="3027.563" y1="2506.048" y2="1207.563" style="stroke:#010101;stroke-linecap:round;stroke-linejoin:round;stroke-width:6px;fill:none"></line>
    <path d="M3240.8326,2597.8707s111.4041-1269.3,73.73-1371.3222" style="stroke:#010101;stroke-linecap:round;stroke-linejoin:round;stroke-width:6px;fill:none"></path>
    <path d="M3148.74,1658.7042c.4136-53.987,37.694-262.2191,37.694-262.2191s38.0948-114.2942-15.8222,346.8067c-40.7706,262.2192-72.4433,163.1239-72.4433,163.1239" style="fill:#fff"></path>
  </g>
  <path d="M2765.2444,2415.8621c21.9972,41.295,222.85,27.409,250.6745,15.0982,0,0,113.7542-829.7908,138.284-838.9034,48.58-18.0472-101.647,832.1715-84.1949,853.7133s224.421,34.0923,244.5542-14.81c0,0,117.9771-957.5374,27.2841-1202.0174C3289.23,1087.1057,2992.38,1230.25,2992.38,1230.25S2743.2473,2374.5672,2765.2444,2415.8621Z" style="stroke:#010101;stroke-linecap:round;stroke-linejoin:round;stroke-width:6px;fill:none"></path>
  <path d="M3017.5467,1486.8941l-12.1449-34.9165c81.222-22.3628-37.7214-206.685,77.9059-209.9268-.0237.1279.1834,32.5425.1883,36.96C3028.9725,1309.9421,3125.9829,1457.2442,3017.5467,1486.8941Z" style="fill:#010101"></path>
  <g style="clip-path:url(#clip-path-7)">
    <path d="M3021.31,1425.4985l19.9522,69.2131-57.0994,12.9288c-.9441-24.1035-23.9034-78.3813,19.4651-75.29" style="fill:#fff;stroke:#010101;stroke-linecap:round;stroke-linejoin:round;stroke-width:6px"></path>
  </g>
  <path d="M3017.5467,1486.8941l-12.1449-34.9165c81.222-22.3628-37.7214-206.685,77.9059-209.9268-.0237.1279.1834,32.5425.1883,36.96C3028.9725,1309.9421,3125.9829,1457.2442,3017.5467,1486.8941Z" style="stroke:#010101;stroke-linecap:round;stroke-linejoin:round;stroke-width:6px;fill:none"></path>
  <path d="M2994.6757,1030.38c4.1572-6.985,7.1748-13.4732,8.4552-19.051C3003.1309,1011.3289,2999.66,1018.4814,2994.6757,1030.38Z" style="fill:#ff7651"></path>
  <path d="M3155.348,803.7218c-24.4423,17.0068-153.26,145.51-160.6714,176.6732-1.92,63.9724-74.5989,202.176-12.43,285.3787,35.9816,78.4148,379.61,1.9563,396.8437-51.6169C3310.975,1005.5436,3253.4253,781.3442,3155.348,803.7218Z" style="fill:#010101"></path>
  <g style="clip-path:url(#clip-path-8)">
    <path d="M3283.057,932.9119c-57.882,36.0809-10.205,61.232-2.6326,96.6062,53.0073,247.6193,13.1761,260.5267-234.6174,284.56-.1182-.3726,380.0374-49.438,369.0765-49.1364-22.9388-335.15,24.54-234.409-150.7184-375.7173" style="fill:#010101"></path>
    <polygon points="3133.132 967.81 3068.319 1106.034 3220.431 1093.052 3133.132 967.81" style="fill:#fff;stroke:#010101;stroke-linecap:round;stroke-linejoin:round;stroke-width:6px"></polygon>
    <path d="M3136.108,1007.6059c-1.7087,72.1589-109.3933,73.8656-112.9189-.0053C3024.8979,935.447,3132.5825,933.74,3136.108,1007.6059Z" style="fill:#fff;stroke:#010101;stroke-linecap:round;stroke-linejoin:round;stroke-width:6px"></path>
    <rect width="82.128" height="82.128" x="3158.613" y="956.593" style="stroke:#010101;stroke-linecap:round;stroke-linejoin:round;stroke-width:6px;fill:#010101"></rect>
    <path d="M3003.1309,1011.3289c57.4618,14.0414,27.8962,99.5892-45.9795,132.2528s6.6349-132.2528,6.6349-132.2528" style="fill:#010101"></path>
  </g>
  <path d="M3155.348,803.7218c-24.4423,17.0068-153.26,145.51-160.6714,176.6732-1.92,63.9724-74.5989,202.176-12.43,285.3787,35.9816,78.4148,379.61,1.9563,396.8437-51.6169C3310.975,1005.5436,3253.4253,781.3442,3155.348,803.7218Z" style="stroke:#010101;stroke-linecap:round;stroke-linejoin:round;stroke-width:6px;fill:none"></path>
  <path d="M3263.7767,918.55c43.51,47.456,86.4457,245.2015,118.1,300.6995,30.251-30.24,19.7845-124.0931,40.684-155.3094,56.5522-14.81,76.5565-3.7793,75.925-23.0152-6.0522-184.3512-282.6488-391.0113-547.7874-204.7978-92.9142,91.21-114.9824,73.614-36.5283,176.7925,128.93,169.562,127.4977-108.3383,168.0258-123.4019" style="fill:#010101"></path>
  <g style="clip-path:url(#clip-path-9)">
    <path d="M2898.855 856.8447c-43.7031 63.37 104.2759 193.3 104.2759 193.3M3299.1692 1050.1444c85.8839 2.2721 208.7991-77.31 208.7991-77.31" style="stroke-linecap:round;stroke-linejoin:round;stroke-width:6px;fill:none;stroke:#fff"></path>
    <path d="M3106.9881,759.8841c-103.1889,154.321,73.2063,137.9323,132.4965,10.2807" style="fill:#fff;stroke:#010101;stroke-linecap:round;stroke-linejoin:round;stroke-width:6px"></path>
  </g>
  <path d="M3263.7767,918.55c43.51,47.456,86.4457,245.2015,118.1,300.6995,30.251-30.24,19.7845-124.0931,40.684-155.3094,56.5522-14.81,76.5565-3.7793,75.925-23.0152-6.0522-184.3512-282.6488-391.0113-547.7874-204.7978-92.9142,91.21-114.9824,73.614-36.5283,176.7925,128.93,169.562,127.4977-108.3383,168.0258-123.4019" style="stroke:#010101;stroke-linecap:round;stroke-linejoin:round;stroke-width:6px;fill:none"></path>
  <path d="M3133.73,702.4107c7.4736,71.5662-26.6919,106.9757-17.4494,129.9251,25.7944,18.1613,87.365-52.9856,90.2887-57.2375,3.3,6.3507,2.6865-113.261,4.114-117.3812Z" style="fill:#fff"></path>
  <g style="clip-path:url(#clip-path-10)">
    <path d="M3101.8553,768.1809c38.9656-4.9108,108.9137-4.4262,94.7243-31.4239s-78.6885-23.7061-78.6885-23.7061Z" style="fill:#fff"></path>
  </g>
  <path d="M3133.73,702.4107c7.4736,71.5662-26.6919,106.9757-17.4494,129.9251,25.7944,18.1613,87.365-52.9856,90.2887-57.2375,3.3,6.3507,2.6865-113.261,4.114-117.3812Z" style="stroke:#010101;stroke-linecap:round;stroke-linejoin:round;stroke-width:6px;fill:none"></path>
  <rect width="191.072" height="91.931" x="3278.699" y="1440.929" rx="18.239" style="fill:#fff;stroke:#010101;stroke-linecap:round;stroke-linejoin:round;stroke-width:6px" transform="rotate(20.401 3374.234 1486.894)"></rect>
  <path d="M3336.3609,1082.4671l107.5549-23.1254s-11.4316,396.3547-11.3765,414.0812c.0039,1.2662,25.6027,89.82-40.8562,95.0915s-94.2351-60.5962-66.3751-59.4165,50.5668-26.114,49.2652-37.5057S3356.6946,1106.4617,3336.3609,1082.4671Z" style="fill:#fff"></path>
  <g style="clip-path:url(#clip-path-11)">
    <path d="M3314.5622,1127.962c42.0181,7.16,95.9861-73.2539,148.112-69.4682-19.5824-23.079-133.9463,3.5069-163.505,7.1911" style="fill:#fff"></path>
  </g>
  <path d="M3336.3609,1082.4671l107.5549-23.1254s-11.4316,396.3547-11.3765,414.0812c.0039,1.2662,25.6027,89.82-40.8562,95.0915s-94.2351-60.5962-66.3751-59.4165,50.5668-26.114,49.2652-37.5057S3356.6946,1106.4617,3336.3609,1082.4671Z" style="stroke:#010101;stroke-linecap:round;stroke-linejoin:round;stroke-width:6px;fill:none"></path>
  <path d="M2647.7641,2580.495s-12.5547-46.5717,55.8113-49.8791,94.5644-67.1785,94.5644-67.1785,25.4469,47.7371,69.7122,27.7356l.2279,88.4978-40.5178.1516c7.079-31.4063-31.1975-1.381-34.9681.1344C2772.4009,2580.0286,2649.5038,2580.4886,2647.7641,2580.495Z" style="fill:#fff;stroke:#010101;stroke-linecap:round;stroke-linejoin:round;stroke-width:6px"></path>
  <path d="M3263.7767,1309.719c1.6389,61.4577,45.8884,57.3605,45.8884,57.3605" style="stroke:#010101;stroke-linecap:round;stroke-linejoin:round;stroke-width:6px;fill:none"></path>
  <path d="M3015.898 1873.3422c1.549 18.1591-83.4541 23.2613-88.0883-.0045C2926.2594 1855.1831 3011.2625 1850.0809 3015.898 1873.3422ZM3284.8773 1889.879c1.549 18.1591-83.454 23.2613-88.0883-.0045C3195.2388 1871.72 3280.2418 1866.6176 3284.8773 1889.879Z" style="fill:#fff;stroke:#010101;stroke-linecap:round;stroke-linejoin:round;stroke-width:6px"></path>
  <path d="M3020.2049 1174.75a84.598 84.598 0 0 0 58.9447 45.8284M3369.757 943.1585v4.37" style="stroke-linecap:round;stroke-linejoin:round;stroke-width:6px;fill:none;stroke:#fff"></path>
  <path d="M3223.3513 1845.63h17.4813M2958.9082 1819.1043l17.4754-2.2312M2882.7627 2325.9742l17.4051 13.2114M2736.2769 776.9812l1.5975 4.93M3411.6232 1440.4631l-11.5157 6.478" style="stroke:#010101;stroke-linecap:round;stroke-linejoin:round;stroke-width:6px;fill:none"></path>
  <ellipse cx="3229.272" cy="619.095" rx="29.265" ry="27.178" style="fill:#010101"></ellipse>
  <g style="clip-path:url(#clip-path-12)">
    <path d="M3234.3143,617.4471c-1.4272,9.67,36.82-18.0818,36.82-18.0818l-41.4733-3.5264" style="fill:#010101"></path>
  </g>
  <ellipse cx="3229.272" cy="619.095" rx="29.265" ry="27.178" style="stroke:#010101;stroke-linecap:round;stroke-linejoin:round;stroke-width:6px;fill:none"></ellipse>
  <ellipse cx="3112.743" cy="630.016" rx="29.265" ry="27.178" style="fill:#010101"></ellipse>
  <g style="clip-path:url(#clip-path-13)">
    <path d="M3070.6205,618.6326c22.4707,19.3529,41.7814,16.6687,39.3009,12.0467s-33.7133-20.6886-33.7133-20.6886l-5.5876,4.5024" style="fill:#010101"></path>
  </g>
  <ellipse cx="3112.743" cy="630.016" rx="29.265" ry="27.178" style="stroke:#010101;stroke-linecap:round;stroke-linejoin:round;stroke-width:6px;fill:none"></ellipse>
  <path d="M3167.19,740.9446h0c-30.2665,0-54.8024-22.786-54.8024-50.894l-2.4658-90.6853h109.6049l2.4659,90.6853C3221.9922,718.1586,3197.4563,740.9446,3167.19,740.9446Z" style="fill:#fff"></path>
  <g style="clip-path:url(#clip-path-14)">
    <path d="M3103.773,632.22c34.9148,8.3421,49.4109-14.773,49.4109-14.773s22.3319,4.634,36.0325-3.3182c0,0,11.9881,20.4427,26.545,15.1915,0,0,1.4985,15.8221,10.0614,13.834s2.3548-31.0135,2.3548-31.0135l-53.9462-14.8929-34.4656,2.9646" style="fill:#fff"></path>
  </g>
  <path d="M3167.19,740.9446h0c-30.2665,0-54.8024-22.786-54.8024-50.894l-2.4658-90.6853h109.6049l2.4659,90.6853C3221.9922,718.1586,3197.4563,740.9446,3167.19,740.9446Z" style="stroke:#010101;stroke-linecap:round;stroke-linejoin:round;stroke-width:6px;fill:none"></path>
  <ellipse cx="3193.385" cy="582.813" rx="29.265" ry="27.178" style="fill:#010101"></ellipse>
  <ellipse cx="3167.193" cy="566.57" rx="37.521" ry="36.268" style="fill:#010101"></ellipse>
  <g style="clip-path:url(#clip-path-15)">
    <path d="M3103.34,554.1547c46.0751-.497,46.1929,41.2521,46.1929,41.2521l-57.6867-9.5245-11.54-14.256" style="fill:#010101"></path>
  </g>
  <ellipse cx="3167.193" cy="566.57" rx="37.521" ry="36.268" style="stroke:#010101;stroke-linecap:round;stroke-linejoin:round;stroke-width:6px;fill:none"></ellipse>
  <ellipse cx="3114.741" cy="597.248" rx="38.533" ry="35.785" style="stroke:#010101;stroke-linecap:round;stroke-linejoin:round;stroke-width:6px;fill:#010101"></ellipse>
  <ellipse cx="3167.432" cy="587.194" rx="32.576" ry="30.253" style="stroke:#010101;stroke-linecap:round;stroke-linejoin:round;stroke-width:6px;fill:#010101"></ellipse>
  <ellipse cx="3220.534" cy="597.248" rx="29.265" ry="27.178" style="stroke:#010101;stroke-linecap:round;stroke-linejoin:round;stroke-width:6px;fill:#010101"></ellipse>
  <path d="M3119.4711 642.2936c-41.9581-27.0374-54.8025 42.1467 0 45.3275M3214.9083 642.2936c41.9581-27.0374 54.8024 42.1467 0 45.3275" style="fill:#fff;stroke:#010101;stroke-linecap:round;stroke-linejoin:round;stroke-width:6px"></path>
  <path d="M3153.1792,657.7075c.3716,19.795-21.2074,19.74-23.0252,1.3525C3129.7824,639.2655,3151.3614,639.32,3153.1792,657.7075Z" style="fill:#fff"></path>
  <g style="clip-path:url(#clip-path-16)">
    <path d="M3150.4752,655.7028c-.3267,9.5245-11.3342,10.328-11.8652-.1223C3138.9367,646.0568,3149.9442,645.2533,3150.4752,655.7028Z" style="fill:#010101"></path>
  </g>
  <path d="M3204.7092,657.7075c.3716,19.795-21.2074,19.74-23.0252,1.3525C3181.3124,639.2655,3202.8914,639.32,3204.7092,657.7075Z" style="fill:#fff"></path>
  <g style="clip-path:url(#clip-path-17)">
    <path d="M3202.0052,655.7028c-.3267,9.5245-11.3342,10.328-11.8652-.1223C3190.4667,646.0568,3201.4742,645.2533,3202.0052,655.7028Z" style="fill:#010101"></path>
  </g>
  <path d="M3158.9359 705.9247c11.3717 9.5426 22.7434 0 22.7434 0M3102.7477 652.7112c-5.1377-.3976-9.4643 4.1489 1.0253 9.119M3231.8021 652.7112c5.1378-.3976 8.3488 4.4142-2.1407 9.3843" style="stroke:#010101;stroke-linecap:round;stroke-linejoin:round;stroke-width:6px;fill:none"></path>
  <path d="M3204.5868 625.5963c-26.0416-1.9129-32.2349 7.9444-16.0413 10.1265S3221.6007 626.8462 3204.5868 625.5963ZM3147.6 631.4679c-25.5058-5.2416-33.1085 3.7249-17.3959 7.9673S3164.264 634.8924 3147.6 631.4679Z" style="fill:#010101"></path>
  <path d="M3176.5437,682.0705c-3.8534-5.7654-1.7686-18.172-6.9063-16.9791-5.1376-1.1929-1.7125,11.2137-5.5659,16.9791s1.7126,9.1449,6.2082,9.1449c.01,0,.0172-.0106.0276-.011s.0177.011.0282.011C3174.8311,691.2154,3180.397,687.8359,3176.5437,682.0705Z" style="fill:#fff"></path>
  <g style="opacity:.3">
    <ellipse cx="3132.503" cy="686.062" rx="15.427" ry="12.488" style="fill:#fff;opacity:.5" transform="rotate(-10.812 3132.49 686.06)"></ellipse>
    <ellipse cx="3202.361" cy="686.062" rx="12.488" ry="15.427" style="fill:#fff;opacity:.5" transform="rotate(-79.187 3202.575 686.056)"></ellipse>
  </g>
  <ellipse cx="1414.747" cy="777.598" rx="116.292" ry="89.358" style="fill:#010101"></ellipse>
  <g style="clip-path:url(#clip-path-18)">
    <path d="M1509.2544,703.7064c-49.8653-12.9819-77.6474,37.1536-102.58,14.8s86.1957-56.5219,86.1957-56.5219" style="fill:#010101"></path>
  </g>
  <ellipse cx="1414.747" cy="777.598" rx="116.292" ry="89.358" style="stroke:#010101;stroke-linecap:round;stroke-linejoin:round;stroke-width:6px;fill:none"></ellipse>
  <ellipse cx="1207.11" cy="621.607" rx="24.984" ry="27.166" style="stroke:#010101;stroke-linecap:round;stroke-linejoin:round;stroke-width:6px;fill:#010101"></ellipse>
  <path d="M1442.762,2306.4219c30.1524,253.0729,51.1418,198.9871-51.2647,268.2314,7.4891-26.5033-75.0157-260.8909-82.1291-289.1337Z" style="fill:#fff"></path>
  <g style="clip-path:url(#clip-path-19)">
    <path d="M1356.753,2435.2312c-53.1079,24.447,128.8754,42.0022,128.8754,42.0022l-3.4231-58.2689" style="fill:#fff"></path>
  </g>
  <path d="M1442.762,2306.4219c30.1524,253.0729,51.1418,198.9871-51.2647,268.2314,7.4891-26.5033-75.0157-260.8909-82.1291-289.1337Z" style="stroke:#010101;stroke-linecap:round;stroke-linejoin:round;stroke-width:6px;fill:none"></path>
  <path d="M1207.8711,2595.5243c.5636-.0884,258.4046.0637,259.8086,0,29.0831,2.1806-.06-80.1748,1.2154-92.3038,0,0-51.9459,28.0418-89.98,0,0,0-47.34,52.4989-130.6314,51.871C1224.184,2554.91,1206.0208,2573.0333,1207.8711,2595.5243Z" style="fill:#fff;stroke:#010101;stroke-linecap:round;stroke-linejoin:round;stroke-width:6px"></path>
  <path d="M1034.0369,2309.6641c-114.4579,248.3506-65.9808,211.7687-191.39,216.2792C866.1833,2507.8145,947.01,2265.1416,959.536,2236.4Z" style="fill:#fff"></path>
  <g style="clip-path:url(#clip-path-20)">
    <path d="M857.2415,2412.8018c-8.5548,32.5752,128.3376,4.7871,128.3376,4.7871-18.8263-1.4854-153.2538-55.4591-161.779-27.0336" style="fill:#fff"></path>
  </g>
  <path d="M1034.0369,2309.6641c-114.4579,248.3506-65.9808,211.7687-191.39,216.2792C866.1833,2507.8145,947.01,2265.1416,959.536,2236.4Z" style="stroke:#010101;stroke-linecap:round;stroke-linejoin:round;stroke-width:6px;fill:none"></path>
  <path d="M698.25,2574.6532h0c280.4775-8.5259,264.04,42.2925,260.753-97.42,0,0-52.6644,29.5959-87.3459,0,0,0-49.4789,54.6715-129.3355,54.7515C717.9227,2532.0093,698.25,2551.2293,698.25,2574.6532Z" style="fill:#fff;stroke:#010101;stroke-linecap:round;stroke-linejoin:round;stroke-width:6px"></path>
  <path d="M875.13,2397.3916c4.2263,35.3335,220.7256,49.7322,303.6777-16.22s-33.5336-458.5689-32.2371-502.0115,220.4512-652.2012,220.4512-652.2012l-257.6791,17.377s-94.9919,422.48-116.8291,518.0533S875.13,2397.3916,875.13,2397.3916Z" style="fill:#fff"></path>
  <g style="clip-path:url(#clip-path-21)">
    <path d="M1165.7843,1463.6072c-18.0027,40.2966-81.3889,365.7229-78.7518,391.2792-.7682,11.03-32.7211,468.4974-32.7553,468.9886" style="stroke:#010101;stroke-linecap:round;stroke-linejoin:round;stroke-width:6px;fill:none"></path>
    <path d="M1037.6861 1802.6947c-3.8692 99.265-116.4924 94.79-119.5318-.0037C922.0233 1703.43 1034.6465 1707.9043 1037.6861 1802.6947ZM1181.1548 1423.7035c-66.8018-79.1705-95.3465 441.8228-42.6427 650.24s148.1113-288.0883 148.1113-288.0883" style="fill:#fff"></path>
  </g>
  <path d="M875.13,2397.3916c4.2263,35.3335,220.7256,49.7322,303.6777-16.22s-33.5336-458.5689-32.2371-502.0115,220.4512-652.2012,220.4512-652.2012l-257.6791,17.377s-94.9919,422.48-116.8291,518.0533S875.13,2397.3916,875.13,2397.3916Z" style="stroke:#010101;stroke-linecap:round;stroke-linejoin:round;stroke-width:6px;fill:none"></path>
  <path d="M1165.7843,1463.6072c-8.9521,144.7831-17.4027,322.6369-10.1253,390.1993,13.1024,121.6393,172.89,586.1125,172.89,586.1125,16.4242,37.3144,225.03-28.3752,255.2346-140.3649S1439,1880.7556,1382.498,1731.4359c0,0,197.7462-446.597,11.9427-504.477l-214.0046,26.0656" style="fill:#fff"></path>
  <g style="clip-path:url(#clip-path-22)">
    <path d="M1249.7276,1325.1565c-107.7511,34.9587,276.8588,17.3241,263.4264,225.5649s47.4212-288.7566,47.4212-288.7566l-126.1811-16.26" style="fill:#fff"></path>
    <path d="M1336.9425,1412.7616l-77.0879,366.8724s143.4642,414.2452,182.9074,526.7879" style="stroke:#010101;stroke-linecap:round;stroke-linejoin:round;stroke-width:6px;fill:none"></path>
    <path d="M1242.1852 2128.02c17.6843 56.4746 42.3572 46.4253 70.9438 51.5436-48.2459 34.27-31.064 54.63-27.0981 83.3994-47.5018-35.2945-61.5558-12.662-87.6913 0 18.8881-56.0835-6.98-62.4558-27.0981-83.3994C1230.4168 2180.1966 1228.4837 2153.6257 1242.1852 2128.02ZM1431.89 1898.7172c13.5665 46.4874 37.1659 43.0609 63.4573 46.1044-40.02 27.2679-29.4684 48.6534-24.2385 74.5985-38.3-29.6349-55.3783-12.9914-78.4375 0 16.3491-45.5833-4.7573-56.6825-24.2385-74.5985C1416.8374 1946.2845 1420.8712 1922.7813 1431.89 1898.7172Z" style="fill:#fff;stroke:#010101;stroke-linecap:round;stroke-linejoin:round;stroke-width:6px"></path>
  </g>
  <path d="M1165.7843,1463.6072c-8.9521,144.7831-17.4027,322.6369-10.1253,390.1993,13.1024,121.6393,172.89,586.1125,172.89,586.1125,16.4242,37.3144,225.03-28.3752,255.2346-140.3649S1439,1880.7556,1382.498,1731.4359c0,0,197.7462-446.597,11.9427-504.477l-214.0046,26.0656" style="stroke:#010101;stroke-linecap:round;stroke-linejoin:round;stroke-width:6px;fill:none"></path>
  <path d="M997.1825,672.905c-29.5393-9.8348-74.8141,53.6317-71.8851,96.3057,0,0-155.82,223.9374-38.3521,316.7244s301.669-157.6283,301.669-157.6283l-91.9857-65.6454S960.7461,954.67,947.9491,965.1455s7.0357-180.4622,18.36-186.6693S1050.161,690.5436,997.1825,672.905Z" style="fill:#fff"></path>
  <g style="clip-path:url(#clip-path-23)">
    <path d="M996.8685,920.0222c84.2875,89.3478,38.1713,154.1264,19.6712,184.7131,100.5511,11.3027,80.6595-107.066,98.6234-146.9692" style="fill:#fff"></path>
  </g>
  <path d="M997.1825,672.905c-29.5393-9.8348-74.8141,53.6317-71.8851,96.3057,0,0-155.82,223.9374-38.3521,316.7244s301.669-157.6283,301.669-157.6283l-91.9857-65.6454S960.7461,954.67,947.9491,965.1455s7.0357-180.4622,18.36-186.6693S1050.161,690.5436,997.1825,672.905Z" style="stroke:#010101;stroke-linecap:round;stroke-linejoin:round;stroke-width:6px;fill:none"></path>
  <path d="M973.8009,915.7346s92.9879,210.2417,127.8228,160.8268,187.5025-250.5023,187.5025-250.5023l-82.3916-57.4255S1098.7881,782.1364,973.8009,915.7346Z" style="fill:#fff"></path>
  <g style="clip-path:url(#clip-path-24)">
    <path d="M1070.4457,1098.9977c-31.9461-35.6063-36.52-46.5752-24.5307-50.8414,35.4295-33.0846,65.7928-210.4121,90.2321-97.89,15.0067,3.9575-4.5039,162.319-4.6836,172.3585" style="fill:#fff"></path>
  </g>
  <path d="M973.8009,915.7346s92.9879,210.2417,127.8228,160.8268,187.5025-250.5023,187.5025-250.5023l-82.3916-57.4255S1098.7881,782.1364,973.8009,915.7346Z" style="stroke:#010101;stroke-linecap:round;stroke-linejoin:round;stroke-width:6px;fill:none"></path>
  <path d="M1083.1338,1262.9649c-29.2168,21.3852,77.7262,70.6346,222.9818,72.8693,166.9785,2.5689,194.5916-76.3331,194.5916-76.3331s-73.1948-127.866-51.8357-264.624,14.7222-228.0143-134.6062-242.9471-232.2886,97.893-209.06,207.4005S1132.3258,1226.9589,1083.1338,1262.9649Z" style="fill:#fff"></path>
  <g style="clip-path:url(#clip-path-25)">
    <path d="M1375.0623,877.3171c-252.8975,81.6252-86.0163,246.5114-86.0163,246.5114s120.2116-99.6578,147.7153,43.5459c38.4474,200.1847-362.2481,153.2728-291.7962,176.1289,60.9773,19.7824,484.5427-7.74,484.5427-7.74-.1185-.1012-31.2707-351.3231-31.4209-352.12-59.5277-20.5784-182.1786-61.3322-241.5073-79.4021" style="fill:#fff"></path>
    <path d="M1335.6418,750.5935c-6.463,35.9968-67.9313,66.6943-108.3626,66.6328C1082.0388,768.8154,1336.6846,579.6492,1335.6418,750.5935Z" style="fill:#fff;stroke:#010101;stroke-linecap:round;stroke-linejoin:round;stroke-width:6px"></path>
    <path d="M952.581,1279.6661l4.6761-34.1794c151.3146,90.61,325.7614,114.4764,495.8531,67.8386C1420.17,1439.0829,1012.1279,1337.362,952.581,1279.6661Z" style="fill:#010101"></path>
    <path d="M943.6631,1344.85l4.6761-34.179c151.3145,90.6107,325.7613,114.477,495.8531,67.8385C1411.2518,1504.2658,1003.21,1402.5447,943.6631,1344.85Z" style="fill:#010101"></path>
    <path d="M934.7452,1410.0339l4.6761-34.179c151.3145,90.6106,325.7613,114.477,495.8531,67.8385C1402.3338,1569.45,994.2919,1467.7287,934.7452,1410.0339Z" style="fill:#010101"></path>
    <path d="M925.8272,1475.2179l4.6761-34.179c151.3146,90.61,325.7614,114.4767,495.8531,67.8386C1393.4159,1634.6339,985.374,1532.9128,925.8272,1475.2179Z" style="fill:#010101"></path>
    <polygon points="1301.167 880.405 1171.674 876.097 1238.647 1086.731 1301.167 880.405" style="fill:#fff"></polygon>
    <g style="clip-path:url(#clip-path-26)">
      <rect width="56.998" height="214.142" x="1211.474" y="772.354" style="stroke:#010101;stroke-linecap:round;stroke-linejoin:round;stroke-width:6px;fill:#010101" transform="rotate(-88.092 1240.084 879.457)"></rect>
    </g>
    <polygon points="1301.167 880.405 1171.674 876.097 1238.647 1086.731 1301.167 880.405" style="stroke:#010101;stroke-linecap:round;stroke-linejoin:round;stroke-width:6px;fill:none"></polygon>
  </g>
  <path d="M1083.1338,1262.9649c-29.2168,21.3852,77.7262,70.6346,222.9818,72.8693,166.9785,2.5689,194.5916-76.3331,194.5916-76.3331s-73.1948-127.866-51.8357-264.624,14.7222-228.0143-134.6062-242.9471-232.2886,97.893-209.06,207.4005S1132.3258,1226.9589,1083.1338,1262.9649Z" style="stroke:#010101;stroke-linecap:round;stroke-linejoin:round;stroke-width:6px;fill:none"></path>
  <path d="M1307.8273,762.7432l-7.2227-106.1324c-90.19,42.7966-61.9472,48.7185-79.7235,119.3482" style="fill:#fff"></path>
  <g style="clip-path:url(#clip-path-27)">
    <path d="M1195.1973,769.7905c116.7118-35.4808,57.7876-41.1356,67.536-51.8536-52.2983,11.87-90.1249-10.0077-70.7811,44.3764" style="fill:#fff"></path>
  </g>
  <path d="M1307.8273,762.7432l-7.2227-106.1324c-90.19,42.7966-61.9472,48.7185-79.7235,119.3482" style="stroke:#010101;stroke-linecap:round;stroke-linejoin:round;stroke-width:6px;fill:none"></path>
  <path d="M1289.4823,679.93c0,29.57,26.3492,88.5967,70.1476,62.5289,34.588-20.5861,77.3349-32.959,77.3349-62.5289s-33.0151-53.541-73.7412-53.541S1289.4823,650.36,1289.4823,679.93Z" style="fill:#010101"></path>
  <g style="clip-path:url(#clip-path-28)">
    <path d="M1406.9905,633.7516c-54.4956-14.3231-64.4687,63.7718-92.3737,28.6462-19.5-24.5456,50.3444-52.3544,50.3444-52.3544l33.0053,3.9287" style="fill:#010101"></path>
  </g>
  <path d="M1289.4823,679.93c0,29.57,26.3492,88.5967,70.1476,62.5289,34.588-20.5861,77.3349-32.959,77.3349-62.5289s-33.0151-53.541-73.7412-53.541S1289.4823,650.36,1289.4823,679.93Z" style="stroke:#010101;stroke-linecap:round;stroke-linejoin:round;stroke-width:6px;fill:none"></path>
  <ellipse cx="1314.617" cy="553.58" rx="30.453" ry="29.158" style="fill:#010101"></ellipse>
  <g style="clip-path:url(#clip-path-29)">
    <path d="M1285.622,533.0638c-9.35,28.1346,49.42,31.2038,35.7961,42.9692s-47.2829-19.4408-47.2829-19.4408l-5.61-9.9852" style="fill:#010101"></path>
  </g>
  <ellipse cx="1314.617" cy="553.58" rx="30.453" ry="29.158" style="stroke:#010101;stroke-linecap:round;stroke-linejoin:round;stroke-width:6px;fill:none"></ellipse>
  <path d="M1319.4252,662.6129c-71.2361,129.59-154.5622,62.078-131.84-15.756,7.87-26.9607-7.07-44.34-7.07-44.34l96.8811-15.0051,30.6316,55.9282Z" style="fill:#fff"></path>
  <g style="clip-path:url(#clip-path-30)">
    <path d="M1274.1352,651.4849c-40.9837,5.6125-50.2215-38.5359-50.2215-38.5359s-7.48,31.9623-41.3169,24.6773,13.891-61.4179,13.891-61.4179l69.4552,12.5278" style="fill:#fff"></path>
    <path d="M1227.0754,656.6905c-2.6914,18.4708,16.25,21.0118,20.2386,3.2183C1250.1544,640.5254,1230.8363,639.5744,1227.0754,656.6905Z" style="fill:#fff"></path>
    <g style="clip-path:url(#clip-path-31)">
      <path d="M1227.9307,656.9578c-.3716,9.0184,9.232,10.3572,10.4415.2687C1238.7453,648.0018,1229.1028,647.0879,1227.9307,656.9578Z" style="fill:#010101"></path>
    </g>
    <path d="M1187.5425,653.0242c-2.415,16.7577,13.1071,18.8354,16.5631,2.7474C1206.64,638.2663,1190.8226,637.4921,1187.5425,653.0242Z" style="fill:#fff"></path>
    <g style="clip-path:url(#clip-path-32)">
      <path d="M1187.8272,655.47c-.3606,8.1746,7.5106,9.3383,8.5634.21C1196.7535,647.3364,1188.8511,646.5212,1187.8272,655.47Z" style="fill:#010101"></path>
    </g>
    <path d="M1191.129 625.7849c19.4149-1.2822 23.1236 7.6846 10.4678 9.1032C1189.68 636.2238 1179.4 626.56 1191.129 625.7849ZM1235.0362 632.3166c24.0958-4.41 30.42 4.8492 14.7029 8.3547C1235.0188 643.9545 1220.585 634.9617 1235.0362 632.3166Z" style="fill:#010101"></path>
    <path d="M1205.2581,676.23c3.6445-4.7521,3.4553-16.0953,7.3438-14.5859,4.2467-.6427.0505,10.3375,2.4551,16.0295,2.441,5.7781-2.4458,8.1415-5.9992,7.5445-.0083-.0014-.0123-.0119-.02-.0136s-.0151.0076-.0234.0063C1205.5223,684.6245,1201.6666,680.9135,1205.2581,676.23Z" style="fill:#fff"></path>
    <path d="M1223.4037 685.625c.9868 5.1353 9.034 8.563 18.2565 7.6614 9.5429-.933 16.7826-6.1248 15.86-11.6034-.93-5.52-9.731-8.95-19.3409-7.6652C1228.896 675.2588 1222.41 680.4534 1223.4037 685.625ZM1162.0322 678.43c-.394 4.9924 6.714 10.1176 16.1568 11.5212 9.7707 1.4523 18.3869-1.596 18.9368-6.89.554-5.3343-7.3056-10.6446-17.2375-11.7877C1170.2941 670.1686 1162.429 673.4024 1162.0322 678.43Z" style="fill:#fff;opacity:.3"></path>
    <path d="M1218.3972,691.0225c-4.15,7.3541-12.3329,3.114-12.3329,3.114" style="stroke:#010101;stroke-linecap:round;stroke-linejoin:round;stroke-width:6px;fill:none"></path>
  </g>
  <path d="M1319.4252,662.6129c-71.2361,129.59-154.5622,62.078-131.84-15.756,7.87-26.9607-7.07-44.34-7.07-44.34l96.8811-15.0051,30.6316,55.9282Z" style="stroke:#010101;stroke-linecap:round;stroke-linejoin:round;stroke-width:6px;fill:none"></path>
  <path d="M1223.2565,577.9634c12.11,53.2-26.2066,60.4157-42.7417,50.4718-38.1946-31.2423,22.7956-72.98,56.2765-60.02S1223.2565,577.9634,1223.2565,577.9634Z" style="fill:#010101"></path>
  <g style="clip-path:url(#clip-path-33)">
    <path d="M1220.9752,556.5922c-19.2337,35.0427-.0244,46.1847,1.5784,39.279s5.3671-46.694,5.3671-46.694l-2.9385-.5115" style="fill:#010101"></path>
  </g>
  <path d="M1223.2565,577.9634c12.11,53.2-26.2066,60.4157-42.7417,50.4718-38.1946-31.2423,22.7956-72.98,56.2765-60.02S1223.2565,577.9634,1223.2565,577.9634Z" style="stroke:#010101;stroke-linecap:round;stroke-linejoin:round;stroke-width:6px;fill:none"></path>
  <path d="M1305.89,673.4506c-74.0856,2.7282-152.4453-186.2,2.1371-107.7641C1426.2356,625.6659,1305.89,673.4506,1305.89,673.4506Z" style="fill:#010101"></path>
  <g style="clip-path:url(#clip-path-34)">
    <path d="M1248.8238,647.7382c20.2358,14.7448,53.7356-5.461,49.9418,7.839s-31.576,14.4293-31.576,14.4293l-11.7539-9.3139" style="fill:#010101"></path>
  </g>
  <path d="M1305.89,673.4506c-74.0856,2.7282-152.4453-186.2,2.1371-107.7641C1426.2356,625.6659,1305.89,673.4506,1305.89,673.4506Z" style="stroke:#010101;stroke-linecap:round;stroke-linejoin:round;stroke-width:6px;fill:none"></path>
  <path d="M1270.3953,666.8158c65.181-43.977,67.1529,39.7089,16.2126,43.1371" style="fill:#fff;stroke:#010101;stroke-linecap:round;stroke-linejoin:round;stroke-width:6px"></path>
  <path d="M1294.0813,671.4349c19.4118-7.673,14.7815,18.0744-3.2056,17.9039" style="stroke:#010101;stroke-linecap:round;stroke-linejoin:round;stroke-width:6px;fill:none"></path>
  <path d="M1271.2148,591.8371c-14.0258,15.3862,19.3363,23.5384,19.3363,23.5384Z" style="fill:#010101"></path>
  <path d="M1140.74,766.9268l-148.5659-21.35a24.5594,24.5594,0,0,1-20.61-29.02L980.66,670.02a24.6159,24.6159,0,0,1,28.97-19.3618c39.4875,7.7142,107.73,16.2487,144.4437,20.6a24.5516,24.5516,0,0,1,21.402,27.9809l-6.9461,46.9709A24.5593,24.5593,0,0,1,1140.74,766.9268Z" style="stroke:#010101;stroke-linecap:round;stroke-linejoin:round;stroke-width:6px;fill:#010101"></path>
  <path d="M1111.81,706.2482h30.7948a7.2856,7.2856,0,0,1,7.2856,7.2856v0a7.2857,7.2857,0,0,1-7.2857,7.2857H1111.81a7.2856,7.2856,0,0,1-7.2856-7.2856v0A7.2857,7.2857,0,0,1,1111.81,706.2482Z" style="fill:#010101" transform="rotate(10.579 1127.205 713.532)"></path>
  <path d="M1094.9023,708.6673c-44.8767,103.39-2.6382,147.5586,28.3883,244.5092,165.2063,378.0308,331.4371,48.7454,356.1015-53.2341L1351.37,871.2443s-66.8847,110.0707-68.7529,123.7591-158.93-185.4161-155.475-195.3713S1138.536,694.9789,1094.9023,708.6673Z" style="fill:#fff"></path>
  <g style="clip-path:url(#clip-path-35)">
    <path d="M1344.6558,898.9234c5.9312,17.1469,92.82,68.8967,91.4212,128.5781,17.6517-23.6936,71.4128-90.3711,35.8364-93.322" style="fill:#fff"></path>
  </g>
  <path d="M1094.9023,708.6673c-44.8767,103.39-2.6382,147.5586,28.3883,244.5092,165.2063,378.0308,331.4371,48.7454,356.1015-53.2341L1351.37,871.2443s-66.8847,110.0707-68.7529,123.7591-158.93-185.4161-155.475-195.3713S1138.536,694.9789,1094.9023,708.6673Z" style="stroke:#010101;stroke-linecap:round;stroke-linejoin:round;stroke-width:6px;fill:none"></path>
  <path d="M1328.1412,852.7577a347.31,347.31,0,0,0-12.4513,48.5007c11.6876,3.3184,141.2915,196.48,163.7022,119.334,0,0,83.8963-176.7184-81.2013-245.4389" style="fill:#fff"></path>
  <path d="M1328.1412 852.7577a347.31 347.31 0 0 0-12.4513 48.5007c11.6876 3.3184 141.2915 196.48 163.7022 119.334 0 0 83.8963-176.7184-81.2013-245.4389M1289.1262 1388.6976c-58.5689 108.4194 22.4034 114.988 22.4034 114.988M1283.4414 994.15a112.584 112.584 0 0 1-1.5554 26.442M946.6775 963.8075a40.2535 40.2535 0 0 1-6.6391 17.3176M1326.993 1785.8557h-6.2217M1134.1217 1860.5155l-12.4433-6.2217M1230.6573 1552.4658l21.81 27.971M972.3588 2215.15a443.1928 443.1928 0 0 0 59.1057 49.7732M832.1726 2483.177c15.2366 11.46 6.9813 14.424-21.6085 21.1614M1339.3726 2510.8191a59.0463 59.0463 0 0 1 20.6525 14.395 470.0868 470.0868 0 0 0-73.4017 4.6282M1125.1054 801.57l-6.2091.8678M1113.5239 1423.7035a29.2826 29.2826 0 0 0 18.571 9.5457" style="stroke:#010101;stroke-linecap:round;stroke-linejoin:round;stroke-width:6px;fill:none"></path>
  <path d="M1314.8683,1155.3942a44.95,44.95,0,0,1-28.519,30.5449" style="stroke-linecap:round;stroke-linejoin:round;stroke-width:6px;fill:none;stroke:#fff"></path>
  <g style="clip-path:url(#clip-path-36)">
    <circle cx="651.449" cy="746.507" r="152.95" style="fill:#fff;stroke:#010101;stroke-linecap:round;stroke-linejoin:round;stroke-width:6px"></circle>
    <path d="M941.8759,1067.4761l77.5777-5.4638c-2.1109-.117-244.45-232.7077-264.208-225.7633-68.8151,24.187-45.7971,95.5761-41.762,125.3627,15.441,4.0513,174.3661,118.0321,185.576,125.5151" style="fill:#fff"></path>
    <g style="clip-path:url(#clip-path-37)">
      <path d="M864.3572,1039.1474c-66.3681-17.4828-79.7527-150.7157-93.9105-102.7589-55.3322,105.3468,24.5927,84.7615,86.927,120.6856" style="fill:#fff"></path>
    </g>
    <path d="M941.8759,1067.4761l77.5777-5.4638c-2.1109-.117-244.45-232.7077-264.208-225.7633-68.8151,24.187-45.7971,95.5761-41.762,125.3627,15.441,4.0513,174.3661,118.0321,185.576,125.5151" style="stroke:#010101;stroke-linecap:round;stroke-linejoin:round;stroke-width:6px;fill:none"></path>
    <path d="M757.2494,836.326c8.5442-.6043-172.4159-86.56-237.6737-7.35-9.8759,11.9873-29.0681,303.901-32.9636,316.0527l302.974-47.808L769.5779,935.7928" style="fill:#fff"></path>
    <g style="clip-path:url(#clip-path-38)">
      <path d="M505.4832,906.6505l35.1085,22.5767c-24.5212,157.9,50.947,174.789,154.0768,119.6773s19.4,68.2081,19.4,68.2081l-119.1031,57.4942-147.84-15.9187-67.3916-156.3389,69.1624-46.6531" style="fill:#fff"></path>
      <path d="M712.7,814.4894c22.0614,126.0978-221.1844-36.0938-70.2058-45.9173C670.4477,772.1894,698.8929,789.9459,712.7,814.4894Z" style="fill:#fff;stroke:#010101;stroke-linecap:round;stroke-linejoin:round;stroke-width:6px"></path>
      <polygon points="604.433 925.865 604.433 1025.51 772.829 968.645 604.433 925.865" style="fill:#fff"></polygon>
      <g style="clip-path:url(#clip-path-39)">
        <rect width="46.081" height="164.692" x="582.245" y="890.581" style="stroke:#010101;stroke-linecap:round;stroke-linejoin:round;stroke-width:6px;fill:#010101"></rect>
      </g>
      <polygon points="604.433 925.865 604.433 1025.51 772.829 968.645 604.433 925.865" style="stroke:#010101;stroke-linecap:round;stroke-linejoin:round;stroke-width:6px;fill:none"></polygon>
    </g>
    <path d="M757.2494,836.326c8.5442-.6043-172.4159-86.56-237.6737-7.35-9.8759,11.9873-29.0681,303.901-32.9636,316.0527l302.974-47.808L769.5779,935.7928" style="stroke:#010101;stroke-linecap:round;stroke-linejoin:round;stroke-width:6px;fill:none"></path>
    <path d="M612.2446,749.4664c.8559,1.4515,8.1342,37.6759,11.5616,54.5665,2.671,11.106-.6279,4.8145,5.3723,11.9748,8.6283,16.292,70.3881,43.5373,67.9786,8.6177C665.7982,717.1115,693.4145,740.0766,612.2446,749.4664Z" style="fill:#fff"></path>
    <g style="clip-path:url(#clip-path-40)">
      <path d="M655.063,774.1416c-16.7733,57.5709,81.5727,30.0008,82.85,4.2776L630.6458,749.155" style="fill:#fff"></path>
    </g>
    <path d="M612.2446,749.4664c.8559,1.4515,8.1342,37.6759,11.5616,54.5665,2.671,11.106-.6279,4.8145,5.3723,11.9748,8.6283,16.292,70.3881,43.5373,67.9786,8.6177C665.7982,717.1115,693.4145,740.0766,612.2446,749.4664Z" style="stroke:#010101;stroke-linecap:round;stroke-linejoin:round;stroke-width:6px;fill:none"></path>
    <ellipse cx="681.165" cy="706.141" rx="20.512" ry="20.66" style="fill:#010101" transform="rotate(-74.857 681.165 706.141)"></ellipse>
    <g style="clip-path:url(#clip-path-41)">
      <path d="M687.2089,692.6031a45.8239,45.8239,0,0,0,3.8923,34.8662l-29.0638-36.7135,21.743-3.7181" style="fill:#010101"></path>
    </g>
    <ellipse cx="681.165" cy="706.141" rx="20.512" ry="20.66" style="stroke:#010101;stroke-linecap:round;stroke-linejoin:round;stroke-width:6px;fill:none" transform="rotate(-74.857 681.165 706.141)"></ellipse>
    <path d="M677.8672,687.2537c9.0152,49.1616,47.0812,72.6915,5.8444,94.9368s-53.7483-4.97-74.7242-50.2081,20.19-53.6887,20.19-53.6887Z" style="fill:#fff"></path>
    <g style="clip-path:url(#clip-path-42)">
      <path d="M704.0061,735.7457c.56,3.8085-2.7626,7.765-7.562,8.8949-4.966,1.1692-9.6537-1.1044-10.3163-5.1427-.6675-4.0685,3.032-8.171,8.1037-9.1051C699.1308,729.4905,703.4421,731.91,704.0061,735.7457Z" style="fill:#fff;opacity:.3"></path>
      <path d="M688.8512,701.9429c-23.7389,17.05-42.3285,3.2134-42.3285,3.2134s-.4109,5.2311-10.1973,4.0354c0,0,6.1221,15.1351-4.5038,15.1145,0,0,10.4095,13.8319-2.5343,20.8659s-8.6858-35.5972-8.6858-35.5972l30.8027-21.17,23.26-1.7657" style="fill:#fff"></path>
    </g>
    <path d="M677.8672,687.2537c9.0152,49.1616,47.0812,72.6915,5.8444,94.9368s-53.7483-4.97-74.7242-50.2081,20.19-53.6887,20.19-53.6887Z" style="stroke:#010101;stroke-linecap:round;stroke-linejoin:round;stroke-width:6px;fill:none"></path>
    <path d="M603.1233,748.3c31.0788,9.202,34.7415-15.1936,24.673-24.7593,13.2552-2.9891,2.9376-16.2507,2.9376-16.2507s14.474-.8068,14.6277-4.7688c45.1385,21.8467,57.0318-36.7806,30.5418-39.5878s-49.8449,11.1634-49.8449,11.1634c32.2245-19.7961-44.1236-21.8-30.3178,28.4652-12.6786-14.4478-9.32,10.373,1.3053,15.7107C570.74,730.76,603.1233,748.3,603.1233,748.3Z" style="fill:#010101"></path>
    <g style="clip-path:url(#clip-path-43)">
      <path d="M649.5 663.3c21.423-.7058-21.0562 10.8684-25.101 12.42-1.7739.68 2.9094-2.3234 2.9094-2.3234l20.76-11.1609M622.5522 748.3626s-21.6365-16.1874-36.4839-1.7221S596.63 756.8137 596.63 756.8137l24.5514-2.7151" style="fill:#010101"></path>
    </g>
    <path d="M603.1233,748.3c31.0788,9.202,34.7415-15.1936,24.673-24.7593,13.2552-2.9891,2.9376-16.2507,2.9376-16.2507s14.474-.8068,14.6277-4.7688c45.1385,21.8467,57.0318-36.7806,30.5418-39.5878s-49.8449,11.1634-49.8449,11.1634c32.2245-19.7961-44.1236-21.8-30.3178,28.4652-12.6786-14.4478-9.32,10.373,1.3053,15.7107C570.74,730.76,603.1233,748.3,603.1233,748.3Z" style="stroke:#010101;stroke-linecap:round;stroke-linejoin:round;stroke-width:6px;fill:none"></path>
    <path d="M625.7383,748.3271c-50.5658-19.012-30.86,35.6857,11.257,17.5544" style="fill:#fff;stroke:#010101;stroke-linecap:round;stroke-linejoin:round;stroke-width:6px"></path>
    <path d="M660.71,729.9406c5.8142,11.7171-5.7386,17.3561-12.2325,6.36C642.3653,724.0078,654.5115,719.3471,660.71,729.9406Z" style="fill:#fff"></path>
    <g style="clip-path:url(#clip-path-44)">
      <path d="M660.2218,730.2967c2.2359,5.9174-3.61,8.81-6.6194,2.356C651.32,726.5985,657.2851,723.98,660.2218,730.2967Z" style="fill:#010101"></path>
    </g>
    <path d="M685.1846,719.26c5.2577,10.6359-4.2106,15.254-9.9859,5.28C669.6987,713.4318,679.6449,709.6187,685.1846,719.26Z" style="fill:#fff"></path>
    <g style="clip-path:url(#clip-path-45)">
      <path d="M685.5443,720.9446c2.042,5.3588-2.735,7.7738-5.431,1.9255C678.0324,717.3994,682.9066,715.21,685.5443,720.9446Z" style="fill:#010101"></path>
    </g>
    <path d="M676.8549 701.9c-12.7029 3.1963-13.0883 9.93-4.6787 8.2341C680.0946 708.5374 684.5288 699.9694 676.8549 701.9ZM650.2169 715.3983c-16.39 2.0931-18.3836 9.567-7.5536 8.62C652.8066 723.1309 660.0467 714.1431 650.2169 715.3983Z" style="fill:#010101"></path>
    <path d="M678.9946,738.38c-3.3841-2.3989-5.7765-9.9787-7.9293-8.1645-2.8588.4584,2.2582,6.8824,1.9813,11.1675-.2811,4.35,3.3684,4.902,5.5091,3.7641.005-.0026.0052-.01.01-.0133s.0113.002.0163-.0007C680.6855,744.015,682.33,740.7441,678.9946,738.38Z" style="fill:#fff"></path>
    <path d="M669.4058,748.0291c.56,3.8086-2.7627,7.765-7.5621,8.8949-4.966,1.1692-9.6537-1.1044-10.3163-5.1426-.6675-4.0686,3.032-8.171,8.1037-9.1051C664.53,741.7739,668.8417,744.1938,669.4058,748.0291Z" style="fill:#fff;opacity:.3"></path>
    <path d="M686.5861,750.599a1.5577,1.5577,0,0,1,1.2635,1.44c.3858,8.8968-7,11.831-12.5946,8.2081C665.4587,754.7222,676.1074,748.6161,686.5861,750.599Z" style="fill:#fff"></path>
    <g style="clip-path:url(#clip-path-46)">
      <path d="M672.3084,761.34c-.7753,8.2769,17.7766,9.925,14.7049-1.9494C684.42,753.3648,673.9369,753.3456,672.3084,761.34Z" style="fill:#fff"></path>
      <path d="M684.5609,749.3061c2.5544,3.1358-10.826,9.4287-10.844,2.04l9.5745-2.2479" style="fill:#fff"></path>
    </g>
    <path d="M610.1321,753.7073c-4.9855,1.428-6.3439,7.5933,4.4553,6.5392" style="stroke:#010101;stroke-linecap:round;stroke-linejoin:round;stroke-width:6px;fill:none"></path>
    <polygon points="565.586 1259.085 940.355 1057.608 839.214 982.123 486.612 1145.029 565.586 1259.085" style="fill:#fff"></polygon>
    <g style="clip-path:url(#clip-path-47)">
      <line x1="427.017" x2="779.116" y1="1242.322" y2="1076.046" style="stroke:#010101;stroke-linecap:round;stroke-linejoin:round;stroke-width:6px;fill:none"></line>
    </g>
    <polygon points="565.586 1259.085 940.355 1057.608 839.214 982.123 486.612 1145.029 565.586 1259.085" style="stroke:#010101;stroke-linecap:round;stroke-linejoin:round;stroke-width:6px;fill:none"></polygon>
    <polygon points="756.078 1227.321 1172.909 1125.039 1089.421 1022.066 806.266 1117.113 756.078 1227.321" style="fill:#fff"></polygon>
    <g style="clip-path:url(#clip-path-48)">
      <line x1="769.056" x2="1030.175" y1="1174.137" y2="1104.399" style="stroke:#010101;stroke-linecap:round;stroke-linejoin:round;stroke-width:6px;fill:none"></line>
    </g>
    <polygon points="756.078 1227.321 1172.909 1125.039 1089.421 1022.066 806.266 1117.113 756.078 1227.321" style="stroke:#010101;stroke-linecap:round;stroke-linejoin:round;stroke-width:6px;fill:none"></polygon>
    <path d="M447.125,1158.6881l92.6152-3.1431c-3.4654,37.1235,37.1036,35.4174,33.3846,6.7287,37.256,51.6436,60.7638,2.1768,29.6371-35.2541-34.2138-27.5093-155.1714,17.633-162.8164,12.5453Z" style="fill:#fff;stroke:#010101;stroke-linecap:round;stroke-linejoin:round;stroke-width:6px"></path>
    <path d="M624.3785,1554.9358l59.49,43.987c84.3988-192.16,89.1736-132.4443-2.7284-206.1537Z" style="fill:#fff"></path>
    <g style="clip-path:url(#clip-path-49)">
      <path d="M624.3786,1449.1419c79.9257,46.5157,119.3194,6.4248,129.1617,10.7668-19.016-4.4431-102.7033-29.3179-119.7924-23.3267" style="fill:#fff"></path>
    </g>
    <path d="M624.3785,1554.9358l59.49,43.987c84.3988-192.16,89.1736-132.4443-2.7284-206.1537Z" style="stroke:#010101;stroke-linecap:round;stroke-linejoin:round;stroke-width:6px;fill:none"></path>
    <path d="M801.6011,1759.8145c24.0652-67.0728-112.6537-147.0888-94.4464-200.7069.1227-.16-68.9152-55.8686-69.9629-56.92-9.699,29.949-49.5521,103.1911-23.9683,115.4592C626.6947,1627.8174,801.0564,1759.4035,801.6011,1759.8145Z" style="fill:#fff;stroke:#010101;stroke-linecap:round;stroke-linejoin:round;stroke-width:6px"></path>
    <path d="M875.3036,1552.5558l59.921,43.4538c82.4988-192.9053,87.8627-133.2347-4.7626-206.12Z" style="fill:#fff"></path>
    <g style="clip-path:url(#clip-path-50)">
      <path d="M843.75,1507.4771c14.1888-35.7994,102.7084,4.3736,121.9017-18.1309-25.4772-21.4338-71.0546-39.2043-90.348-19.348" style="fill:#fff"></path>
    </g>
    <path d="M875.3036,1552.5558l59.921,43.4538c82.4988-192.9053,87.8627-133.2347-4.7626-206.12Z" style="stroke:#010101;stroke-linecap:round;stroke-linejoin:round;stroke-width:6px;fill:none"></path>
    <path d="M1054.54,1755.8428c23.4022-67.2847-114.1-146.0762-96.4229-199.8545.121-.1612-69.4635-55.2508-70.5215-56.2925-9.4031,30.0342-48.5317,103.629-22.828,115.6681C878.339,1625.4135,1053.9915,1755.4368,1054.54,1755.8428Z" style="fill:#fff;stroke:#010101;stroke-linecap:round;stroke-linejoin:round;stroke-width:6px"></path>
    <path d="M1181.7718,1148.9007c-.1269.0611-677.59-.0441-854.3538,0-29.5374,5.0629-88.5852-26.3659-78.8974,80.4376-.0761,46.02.0519,145.1483-.0019,180.1328-21.8675,208.4071,90.1019,12.1138,116.987,9.0026,8.211-.0051,54.7943-.004,122.55-.0045,762.2992-11.1394,736.4325,46.3266,730.9965-92.9412C1213.8925,1226.3385,1239.4185,1154.1738,1181.7718,1148.9007Z" style="fill:#010101"></path>
    <g style="clip-path:url(#clip-path-51)">
      <path d="M688.9594,1113.0992c160.543,151.8881,547.5488-60.3774,475.4523,215.09s147.5463,45.79,147.5463,45.79l-8.3833-188.4257-130.6658-82.7206-343.5124-80.7664" style="fill:#010101"></path>
      <path d="M1076.8285 1259.0211c-.1954-.0142-385.38.01-566.28 0-66.6062-4.6018-97.4464 13.0987-107.8449-15.8449-8.8219-32.2262 215.7973-9.4417 404.5566-15.8636C955.0257 1231.8584 1153.0447 1209.067 1076.8285 1259.0211ZM870.4649 1337.0242c-.1966-.0232-364.6526.0168-440.371 0-10.0706-3.6531-18.6936 10.8747-27.3929-15.8452-10.8184-31.8212 138.747-9.995 265.3613-15.8617C784.1447 1309.3927 933.4485 1288.1256 870.4649 1337.0242Z" style="fill:#fff;stroke:#010101;stroke-linecap:round;stroke-linejoin:round;stroke-width:6px"></path>
      <path d="M142.6622,1343.6886c45.98-102.6638,162.6811-76.15,203.3436,7.2589,34.0766,233.7945,173.8466,205.8391,340.8913,125.1726" style="stroke-linecap:round;stroke-linejoin:round;stroke-width:6px;fill:none;stroke:#fff"></path>
    </g>
    <path d="M1181.7718,1148.9007c-.1269.0611-677.59-.0441-854.3538,0-29.5374,5.0629-88.5852-26.3659-78.8974,80.4376-.0761,46.02.0519,145.1483-.0019,180.1328-21.8675,208.4071,90.1019,12.1138,116.987,9.0026,8.211-.0051,54.7943-.004,122.55-.0045,762.2992-11.1394,736.4325,46.3266,730.9965-92.9412C1213.8925,1226.3385,1239.4185,1154.1738,1181.7718,1148.9007Z" style="stroke:#010101;stroke-linecap:round;stroke-linejoin:round;stroke-width:6px;fill:none"></path>
    <path d="M733.1085,1124.6937l-128.3211,292.53s184.2366,107.9923,241.0616,71.3412S947.2,1088.3763,947.2,1088.3763c23.6914-47.8744-7.8076-103.94-62.8138-111.8042h0a86.3194,86.3194,0,0,0-58.0178,12.138" style="fill:#fff"></path>
    <g style="clip-path:url(#clip-path-52)">
      <path d="M1003.3878,982.1229c-3.226,63.2158-150.8464,59.76-152.8293-.0041C853.7845,918.9071,1001.405,922.3628,1003.3878,982.1229Z" style="fill:#fff"></path>
      <path d="M657.9257,1459.0913c157.41-466.7226,221.3681-410.288-90.0692-310.1906" style="stroke:#010101;stroke-linecap:round;stroke-linejoin:round;stroke-width:6px;fill:none"></path>
    </g>
    <path d="M733.1085,1124.6937l-128.3211,292.53s184.2366,107.9923,241.0616,71.3412S947.2,1088.3763,947.2,1088.3763c23.6914-47.8744-7.8076-103.94-62.8138-111.8042h0a86.3194,86.3194,0,0,0-58.0178,12.138" style="stroke:#010101;stroke-linecap:round;stroke-linejoin:round;stroke-width:6px;fill:none"></path>
    <path d="M1009.3643,1137.96c.2252.0748-123.9684,220.9539-153.2072,300.2273-6.5025,17.5187-10.093,27.193-10.3081,27.7725,24.5542,23.878,203.623,93.8445,244.9913,51.85s90.9438-375.7346,94.9284-382.95c37.501-63.59-38.1643-144.5772-114.6927-105.4863" style="fill:#fff"></path>
    <g style="clip-path:url(#clip-path-53)">
      <path d="M1259.0759,1029.4179c-3.226,63.2158-150.8464,59.76-152.8293-.0041C1109.4726,966.2021,1257.0931,969.6578,1259.0759,1029.4179Z" style="fill:#fff"></path>
      <path d="M899.8357,1499.0933c.0354-.1678,78.7692-214.49,117.5251-320.1,50.152-113.3792-1.0853-70.299-93.4827-43.6328" style="stroke:#010101;stroke-linecap:round;stroke-linejoin:round;stroke-width:6px;fill:none"></path>
    </g>
    <path d="M1009.3643,1137.96c.2252.0748-123.9684,220.9539-153.2072,300.2273-6.5025,17.5187-10.093,27.193-10.3081,27.7725,24.5542,23.878,203.623,93.8445,244.9913,51.85s90.9438-375.7346,94.9284-382.95c37.501-63.59-38.1643-144.5772-114.6927-105.4863" style="stroke:#010101;stroke-linecap:round;stroke-linejoin:round;stroke-width:6px;fill:none"></path>
    <path d="M540.5729,811.661C194.6282,1045.6055,160.7436,1067.99,379.2243,1314.8442c46.2694,52.2782,107.4824-152.7152,86.9684-179.5371-12.3251-16.115-53.84-41.1318-82.0247-73.6008,0,0,136.4263-25.3987,179.494-54.4279" style="fill:#fff"></path>
    <path d="M540.5729,811.661C194.6282,1045.6055,160.7436,1067.99,379.2243,1314.8442c46.2694,52.2782,107.4824-152.7152,86.9684-179.5371-12.3251-16.115-53.84-41.1318-82.0247-73.6008,0,0,136.4263-25.3987,179.494-54.4279" style="stroke:#010101;stroke-linecap:round;stroke-linejoin:round;stroke-width:6px;fill:none"></path>
    <path d="M365.8345,1053.3058a31.9377,31.9377,0,0,0,13.39,9.6" style="stroke-linecap:round;stroke-linejoin:round;stroke-width:6px;fill:none;stroke:#fff"></path>
    <path d="M761.4116 1310.4105a108.1884 108.1884 0 0 0 26.9281 4.4337M1101.8515 1109.3012l13.4019 1.6778M639.256 804.5291a12.6149 12.6149 0 0 0 7.02 7.1319" style="stroke:#010101;stroke-linecap:round;stroke-linejoin:round;stroke-width:6px;fill:none"></path>
    <path d="M547.0575 1187.5151c-1.9669 9.1682 3.973 19.2812 13.2116 22.4935M563.662 1007.2784l6.6947 9.5774M745.6129 862.1146a173.4025 173.4025 0 0 1 .8383 26.3171" style="stroke-linecap:round;stroke-linejoin:round;stroke-width:6px;fill:none;stroke:#fff"></path>
  </g>
  <path d="M1208.1683,1472.4942H542.0919a33.9962,33.9962,0,0,0-33.9952,33.9965v304.8675a33.9962,33.9962,0,0,0,33.9952,33.9966H977.5112c17.55,22.1554,37.5694,47.3948,52.1207,65.7286,6.7238,8.4729,20.2775,3.6094,20.2775-7.2075v-58.5211h158.2589a33.9963,33.9963,0,0,0,33.9953-33.9966V1506.4907A33.9962,33.9962,0,0,0,1208.1683,1472.4942Z" style="fill:#fff"></path>
  <g style="clip-path:url(#clip-path-54)">
    <path d="M1891.0664,1009.1346c-4.6287,462.7987-909.2618,316.7353-797.06,428.6013s393.9149,176.1092,393.9149,176.1092l220.7194-33.2266,52.2132-533.9985" style="fill:#fff"></path>
  </g>
  <path d="M1208.1683,1472.4942H542.0919a33.9962,33.9962,0,0,0-33.9952,33.9965v304.8675a33.9962,33.9962,0,0,0,33.9952,33.9966H977.5112c17.55,22.1554,37.5694,47.3948,52.1207,65.7286,6.7238,8.4729,20.2775,3.6094,20.2775-7.2075v-58.5211h158.2589a33.9963,33.9963,0,0,0,33.9953-33.9966V1506.4907A33.9962,33.9962,0,0,0,1208.1683,1472.4942Z" style="stroke:#010101;stroke-linecap:round;stroke-linejoin:round;stroke-width:6px;fill:none"></path>
  <circle cx="656.31" cy="1648.729" r="33.956" style="fill:#fff;stroke:#010101;stroke-linecap:round;stroke-linejoin:round;stroke-width:6px"></circle>
  <circle cx="798.26" cy="1648.729" r="33.956" style="fill:#fff;stroke:#010101;stroke-linecap:round;stroke-linejoin:round;stroke-width:6px"></circle>
  <circle cx="940.211" cy="1648.729" r="33.956" style="fill:#fff;stroke:#010101;stroke-linecap:round;stroke-linejoin:round;stroke-width:6px"></circle>
  <circle cx="1082.161" cy="1648.729" r="33.956" style="fill:#fff;stroke:#010101;stroke-linecap:round;stroke-linejoin:round;stroke-width:6px"></circle>
  <path d="M705.9671 1524.1 651.45 1563.5657M1111.6259 1759.05l-32.2846 12.0457" style="stroke-linecap:round;stroke-linejoin:round;stroke-width:6px;fill:none;stroke:#fff"></path>
  <path d="M2998.4106,404.4334H2500.21a25.4278,25.4278,0,0,0-25.4272,25.4281v228.03A25.4279,25.4279,0,0,0,2500.21,683.32h325.6778c13.1264,16.5714,28.1,35.45,38.9843,49.1626,5.0292,6.3375,15.1668,2.7,15.1668-5.3909V683.32h118.372a25.4279,25.4279,0,0,0,25.4272-25.4282v-228.03A25.4278,25.4278,0,0,0,2998.4106,404.4334Z" style="fill:#fff"></path>
  <path d="M2998.4106,404.4334H2500.21a25.4278,25.4278,0,0,0-25.4272,25.4281v228.03A25.4279,25.4279,0,0,0,2500.21,683.32h325.6778c13.1264,16.5714,28.1,35.45,38.9843,49.1626,5.0292,6.3375,15.1668,2.7,15.1668-5.3909V683.32h118.372a25.4279,25.4279,0,0,0,25.4272-25.4282v-228.03A25.4278,25.4278,0,0,0,2998.4106,404.4334Z" style="stroke:#010101;stroke-linecap:round;stroke-linejoin:round;stroke-width:6px;fill:none"></path>
  <circle cx="2585.641" cy="536.251" r="25.398" style="fill:#fff;stroke:#010101;stroke-linecap:round;stroke-linejoin:round;stroke-width:6px"></circle>
  <circle cx="2691.814" cy="536.251" r="25.398" style="fill:#fff;stroke:#010101;stroke-linecap:round;stroke-linejoin:round;stroke-width:6px"></circle>
  <circle cx="2797.988" cy="536.251" r="25.398" style="fill:#fff;stroke:#010101;stroke-linecap:round;stroke-linejoin:round;stroke-width:6px"></circle>
  <circle cx="2904.162" cy="536.251" r="25.398" style="fill:#fff;stroke:#010101;stroke-linecap:round;stroke-linejoin:round;stroke-width:6px"></circle>
  <path d="M2609.5636 439.3532 2583.4409 457.55M2933.3027 609.4507a119.4744 119.4744 0 0 1-29.6088 20.356" style="stroke:#010101;stroke-linecap:round;stroke-linejoin:round;stroke-width:6px;fill:none"></path>
  <rect width="59.647" height="195.365" x="2006.151" y="1373.153" style="fill:#010101" transform="rotate(-37.945 2035.978 1470.837)"></rect>
  <g style="clip-path:url(#clip-path-55)">
    <path d="M2035.9747,1348.5113c-34.1338,127.05-53.225,70.2492-24.47,154.3114s-152.156-47.805-152.156-47.805l97.2146-86.0235,21.94-20.9675" style="fill:#010101"></path>
  </g>
  <rect width="59.647" height="195.365" x="2006.151" y="1373.153" style="stroke:#010101;stroke-linecap:round;stroke-linejoin:round;stroke-width:6px;fill:none" transform="rotate(-37.945 2035.978 1470.837)"></rect>
  <path d="M1738.8912,1089.84c-88.92,69.3355-104.7961,197.6273-35.4606,286.5472s197.6274,104.7961,286.5472,35.4605S2094.7746,1214.22,2025.439,1125.3,1827.8117,1020.5036,1738.8912,1089.84Zm217.6717,279.1545a149.8239,149.8239,0,1,1,26.0222-210.279A149.8237,149.8237,0,0,1,1956.5629,1368.9942Z" style="stroke:#010101;stroke-linecap:round;stroke-linejoin:round;stroke-width:6px;fill:#010101"></path>
  <path d="M2194.961,1656.3125l-16.86,13.1465a28.9111,28.9111,0,0,1-40.5771-5.0214l-126.02-161.6149a10.7951,10.7951,0,0,1,1.875-15.1512l45.4322-35.426a10.7953,10.7953,0,0,1,15.1512,1.875l126.02,161.6149A28.9112,28.9112,0,0,1,2194.961,1656.3125Z" style="fill:#010101"></path>
  <g style="clip-path:url(#clip-path-56)">
    <rect width="153.711" height="68.055" x="2052.2" y="1524.14" style="fill:#fff;stroke:#010101;stroke-linecap:round;stroke-linejoin:round;stroke-width:6px" transform="rotate(-37.945 2129.058 1558.168)"></rect>
    <path d="M2171.83,1549.5068c47.8441,134.5615-60.5169,122.6-60.5169,122.6l45.5656,71.7661,116.62-24.1466L2186.0432,1556.88" style="fill:#010101"></path>
  </g>
  <path d="M2194.961,1656.3125l-16.86,13.1465a28.9111,28.9111,0,0,1-40.5771-5.0214l-126.02-161.6149a10.7951,10.7951,0,0,1,1.875-15.1512l45.4322-35.426a10.7953,10.7953,0,0,1,15.1512,1.875l126.02,161.6149A28.9112,28.9112,0,0,1,2194.961,1656.3125Z" style="stroke:#010101;stroke-linecap:round;stroke-linejoin:round;stroke-width:6px;fill:none"></path>
  <circle cx="1864.435" cy="1250.843" r="149.824" style="fill:#fff;stroke:#010101;stroke-linecap:round;stroke-linejoin:round;stroke-width:6px" transform="rotate(-45 1864.435 1250.844)"></circle>
  <path d="m1722.1008 1141.5767-5.98 17.9415M2085.8317 1519.2743l-11.94 13.9722M2039.8718 1282.9063a66.5123 66.5123 0 0 1-12.2886 28.353" style="stroke-linecap:round;stroke-linejoin:round;stroke-width:6px;fill:none;stroke:#fff"></path>
</svg>
